<svg xmlns="http://www.w3.org/2000/svg" version="1.1" width="600px" height="600px" viewBox="0 0 200 200" style="overflow:hidden!important;"><g id="svga-group-wrapper"><g id="svga-group-backs-single"><path id="SvgjsPath12335" d="M0 0h200v200H0V0z" fill="#ecf0f1" stroke-width="none" opacity="1"></path></g><g id="svga-group-humanwrap-move" transform="matrix(1,0,0,1,0,-2)"><g id="svga-group-humanwrap" transform="matrix(0.8499994000000002,0,0,0.8499994000000002,14.992559512234479,18.18007312054479)"><g id="svga-group-hair-back-move" transform="matrix(1,0,0,1,0,0)"><g id="svga-group-hair-back"></g></g><g id="svga-group-humanbody-back"><path id="SvgjsPath12270" d="m170 180.3-27.3-6.9-18-9.9-1.5-28.2H76.8l-1.5 28.2-18 9.9-27.3 6.9-9.1 19.7-3 20h164.2l-3-20z" fill="#f1cab5" stroke-width="none" opacity="1"></path><path id="SvgjsPath12271" d="m76.8 135.3-1.5 28.2-18 9.9-27.3 6.9-9.1 19.7-3 20h14.6v-20l2.7-17.7 23.8-6.4 24.7-8.3 3.5-32.3z" fill="#d29574" stroke-width="none" opacity="1"></path></g><g id="svga-group-chinshadow-single"><path id="SvgjsPath12266" d="m123.7 145.5-.5-10.2H76.8l-.8 15.1 7.1 6.4 14.1 4.1 14.2-4.1z" fill="#c37d58" stroke-width="none" opacity="1"></path></g><g id="svga-group-humanbody-front"><path id="SvgjsPath12272" d="m92.8 168.3 2 7.9 6.9 4.6s-8.5-3-8.7-3.6c-.2-.6-.2-8.9-.2-8.9z" fill="#d29574" stroke-width="none" opacity="1"></path></g><g id="svga-group-clothes-single"><path id="SvgjsPath12147" d="m179.6 200-8.5-20-28.8-7.4-9.5-4.8-.1-1.5-8.3-8.8.2 3.5-1.1 12.2-7.6 7.9-9.1 1.9-2.1 5.7-2.1 2.9-7.5-9.3-10.7-1.2-5.8-7.3-3.2-13.1.2-3.2-8.3 8.8-.1 1.5-9.5 4.8L29 180l-8.6 20-3.4 20h165.9z" fill="#386e77" stroke-width="none" opacity="1"></path><path id="SvgjsPath12148" d="m29.9 200.7 3.6-10.8 24.9-9.6 7.2-3.2.3-2 11.5-5.7h.1l-2.1-8.7.2-3.2-8.3 8.8-.1 1.5-9.5 4.8L29 180l-8.6 20-3.4 20h12.6z" fill="#265e68" stroke-width="none" opacity="1"></path><path id="SvgjsPath12149" d="m132.8 167.8 2.7 19.2 1.2 8.7L125 188l-5.2-5.3-4.2-1.6 4 3.4-6.4 2.6-7.9 1.5 7-.6-8.7 11.8V220h1.7l-.8-19.8 7.8-12 1-.1 7.1-2.8 4.2 4.5 13.3 8.1-1.6-12.4-3.5-17.7zm-33.1 29.7 2.9-5.9-3.5 5-6.1-8.7-12.5-3.4 3.8-3.3-4.2 1.6L75 188l-11.7 7.7 1.2-8.7 2.7-19.2-3.4 17.7-1.6 12.4 13.3-8.1 4.6-4.9.5-.5 11.8 4.3 6.1 8.6-1.2.7 1.1 21.9h1.5l-1.3-21 1.1-1.4zm10.5-12.8-1.5-.8-.9 1.4 1.4 1 1-1.6zm-9.3 13.3 1.4 1 1-1.7-1.5-.8-.9 1.5zm-.8 18.6 1.4 1 1-1.7-1.5-.8-.9 1.5zm-69.7-35.3 6.8 21 1.2 17.7h1.4l-1.1-17.8-8.3-20.9zm130.5 19.3-1.2 19.4h1.9l1-19.2 7-18.2-8.7 18z" fill="#184f58" stroke-width="none" opacity="1"></path><path id="SvgjsPath12150" d="m127 162.5-1.1-1.4v13l-5.3 8 4.8 4.6s2.3-11.1 2.3-11.8c0-.7-.7-12.4-.7-12.4zm-53.2.1.5-2.3-1.8 2.5 1.2 13.4 2.1 9.5 3.8-4.3-3.9-6.1-1.9-12.7z" fill="#4d7e86" stroke-width="none" opacity="1"></path></g><g id="svga-group-head" transform="matrix(1,0,0,1,0,0)"><g id="svga-group-ears-left-move" transform="matrix(1,0,0,1,0,0)"><g id="svga-group-ears-left"><path id="SvgjsPath12162" d="m58.4 92.2-5-3.9-4.1 14.6 2.7 10.2 5.7 5.1 3.6-.9 2.8-7.6-1.4-12.6z" fill="#f1cab5" stroke-width="none" opacity="1"></path><path id="SvgjsPath12163" d="m51.4 102 3.2-6.3 2.8 5.5.5 8s-3.1-.7-3.2-1c0-.3 1.2-6.5 1.1-6.8-.1-.3-1-3.6-1.2-3.5-.1.1-3.2 4.1-3.2 4.1z" fill="#d29574" stroke-width="none" opacity="1"></path><path id="SvgjsPath12164" d="m60 113.6-1.4-16.5-5.2-8.8 5.9 2.8 3.4 6 1.4 12.6-2.8 7.6-3.6.9-5.7-5.1s5.4 2.1 5.5 2.1c.3.1 2.5-1.6 2.5-1.6z" fill="#e2af93" stroke-width="none" opacity="1"></path></g></g><g id="svga-group-ears-right-move" transform="matrix(1,0,0,1,0,0)"><g id="svga-group-ears-right"><path id="SvgjsPath12165" d="m141.6 92.2 5-3.9 4.1 14.6-2.7 10.2-5.7 5.1-3.6-.9-2.8-7.6 1.4-12.6z" fill="#f1cab5" stroke-width="none" opacity="1"></path><path id="SvgjsPath12166" d="m148.6 102-3.2-6.3-2.8 5.5-.5 8s3.1-.7 3.2-1-1.2-6.5-1.1-6.8c.1-.3 1-3.6 1.2-3.5.1.1 3.2 4.1 3.2 4.1z" fill="#d29574" stroke-width="none" opacity="1"></path><path id="SvgjsPath12167" d="m140 113.6 1.4-16.5 5.2-8.8-5.9 2.8-3.4 6-1.4 12.6 2.8 7.6 3.6.9 5.7-5.1s-5.4 2.1-5.5 2.1c-.3.1-2.5-1.6-2.5-1.6z" fill="#e2af93" stroke-width="none" opacity="1"></path></g></g><g id="svga-group-faceshape-wrap"><g id="svga-group-faceshape-single"><path id="SvgjsPath12252" d="M138.1 60c-6.9-11.6-19.7-19.5-19.7-19.5-7.2-1.5-18.4-2.3-18.4-2.3s-11.1.8-18.4 2.3c0 0-12.8 7.9-19.7 19.5 0 0-5.1 14.5-5.3 24.8l3.7 42.9 25.6 23.5 14.1 4 14.1-4 25.6-23.5 3.7-42.9c-.2-10.3-5.3-24.8-5.3-24.8z" fill="#f1cab5" stroke-width="none" opacity="1"></path><path id="SvgjsPath12253" d="M86.5 148.4 66.3 125l-3.8-40.6 3.6-22.8c1.9-3.3 17.1-17.5 17.1-17.5l16.6-3 18.6-.6c-7.2-1.5-18.4-2.3-18.4-2.3s-11.1.8-18.4 2.3c0 0-12.8 7.9-19.7 19.5 0 0-5.1 14.5-5.3 24.8l3.7 42.9 25.6 23.5 14.1 4 14.1-4-14.4 2.6-13.2-5.4z" fill="#d29574" stroke-width="none" opacity="1"></path></g></g><g id="svga-group-mouth-single-move" transform="matrix(1,0,0,1,0,0)"><g id="svga-group-mouth-single"><path id="SvgjsPath12364" d="m84.24 127.12 9.86 1.08 6.5 2.2 6-2.7 9.84-.08-10.24-1.72H93.3z" fill="#da7c87" stroke-width="none" opacity="1" transform="translate(0 2)"></path><path id="SvgjsPath12365" d="m88.92 131.27 6.38 2.43 10.5.3 4.52-2.63L106 135H95.2z" fill="#d29574" stroke-width="none" opacity="1" transform="translate(0 2)"></path></g></g><g id="svga-group-eyes-left-move" transform="matrix(1,0,0,1,0,0)"><g id="svga-group-eyes-left"><g id="svga-group-eyesback-left"><path id="SvgjsPath12206" d="M92.4 99.4 87.5 92s-7.4-.2-12.3-.1l-6.4 7.4 6.6.8 17-.7z" fill="#ffffff" stroke-width="none" opacity="1"></path></g><g id="svga-group-eyesiriswrapper-left" transform="matrix(1,0,0,1,0,0)"><g id="svga-group-eyesiriscontrol-left" transform="matrix(1,0,0,1,0,0)"><g id="svga-group-eyesiris-left"><path id="SvgjsPath12287" d="M76.2 97.3v-5.6l4.8-2.8 4.9 2.8v5.6l-4.9 2.8z" fill="#4e60a3" stroke-width="none" opacity="1"></path><path id="SvgjsPath12288" d="m78.6 98.7 2.4 1.4 4.9-2.8v-4.1l-2.5-1.4-4.8 2.8z" fill="#5a6bab" stroke-width="none" opacity="1"></path><path id="SvgjsPath12289" d="m81 89.2 4.6 2.7v5.3L81 99.8l-4.6-2.7v-5.3l4.6-2.6m0-.6-5.1 2.9v5.9l5.1 2.9 5.1-2.9v-5.9L81 88.6z" fill="#253984" stroke-width="none" opacity="1"></path><path id="SvgjsPath12290" d="M82.3 92.3h-2.6l-1.3 2.2 1.3 2.3h2.6l1.3-2.3z" fill="#000000" stroke-width="none" opacity="1"></path><path id="SvgjsPath12291" d="M79 91.6h2v2h-2v-2z" fill="#ffffff" stroke-width="none" opacity="1"></path><path id="SvgjsPath12292" d="M81.5 96.1h1.1v1.1h-1.1v-1.1z" fill="#ffffff" stroke-width="none" opacity="1"></path></g></g></g><g id="svga-group-eyesfront-left"><path id="SvgjsPath12214" d="M67.1 89.3v11.9l7.9 8.4h11.2l7.9-8.4V89.3l-7.9-8.4H75l-7.9 8.4zm1.7 10.1 6.4-7.4c4.9-.1 12.3.1 12.3.1l4.9 7.4-17 .8-6.6-.9z" fill="#f1cab5" stroke-width="none" opacity="1"></path><path id="SvgjsPath12215" d="m93.1 100.6-5.9-8.3H75.3l-7.52 8.33 7.32-9.23h12.8z" fill="#000000" stroke-width="none" opacity="1"></path><path id="SvgjsPath12216" d="m92.3 97.1-4.6-8.6-12.9.2-7 9.5 7.5-9.1 12.1-.1z" fill="#e2af93" stroke-width="none" opacity="1"></path></g></g></g><g id="svga-group-eyes-right-move" transform="matrix(1,0,0,1,0,0)"><g id="svga-group-eyes-right"><g id="svga-group-eyesback-right"><path id="SvgjsPath12207" d="m107.6 99.4 4.9-7.4s7.4-.2 12.3-.1l6.4 7.4-6.6.8-17-.7z" fill="#ffffff" stroke-width="none" opacity="1"></path></g><g id="svga-group-eyesiriswrapper-right" transform="matrix(1,0,0,1,0,0)"><g id="svga-group-eyesiriscontrol-right" transform="matrix(1,0,0,1,0,0)"><g id="svga-group-eyesiris-right"><path id="SvgjsPath12293" d="M114.1 97.3v-5.6l4.9-2.8 4.8 2.8v5.6l-4.8 2.8z" fill="#4e60a3" stroke-width="none" opacity="1"></path><path id="SvgjsPath12294" d="m116.5 98.7 2.5 1.4 4.8-2.8v-4.1l-2.4-1.4-4.9 2.8z" fill="#5a6bab" stroke-width="none" opacity="1"></path><path id="SvgjsPath12295" d="m119 89.2 4.6 2.7v5.3l-4.6 2.7-4.6-2.7v-5.3l4.6-2.7m0-.6-5.1 2.9v5.9l5.1 2.9 5.1-2.9v-5.9l-5.1-2.9z" fill="#253984" stroke-width="none" opacity="1"></path><path id="SvgjsPath12296" d="M120.3 92.3h-2.6l-1.3 2.2 1.3 2.3h2.6l1.3-2.3z" fill="#000000" stroke-width="none" opacity="1"></path><path id="SvgjsPath12297" d="M117 91.6h2v2h-2v-2z" fill="#ffffff" stroke-width="none" opacity="1"></path><path id="SvgjsPath12298" d="M119.5 96.1h1.1v1.1h-1.1v-1.1z" fill="#ffffff" stroke-width="none" opacity="1"></path></g></g></g><g id="svga-group-eyesfront-right"><path id="SvgjsPath12217" d="M125 80.8h-11.2l-7.9 8.4v11.9l7.9 8.4H125l7.9-8.4V89.3l-7.9-8.5zm-.5 19.4-17-.8 4.9-7.4s7.4-.2 12.3-.1l6.4 7.4-6.6.9z" fill="#f1cab5" stroke-width="none" opacity="1"></path><path id="SvgjsPath12220" d="m106.78 100.49 6.02-8.19h11.9l7.62 8.43-7.42-9.33h-12.8z" fill="#000000" stroke-width="none" opacity="1"></path><path id="SvgjsPath12221" d="m107.7 97.1 4.6-8.6 12.9.2 7 9.5-7.5-9.1-12.1-.1z" fill="#e2af93" stroke-width="none" opacity="1"></path></g></g></g><g id="svga-group-facehighlight-single"></g><g id="svga-group-eyebrows-left-move" transform="matrix(1,0,0,1,0,0)"><g id="svga-group-eyebrows-left-rotate" transform="matrix(1,1.7453292519943295e-9,-1.7453292519943295e-9,1,1.4695672234665835e-7,-1.3875367699256458e-7)"><g id="svga-group-eyebrows-left"><path id="SvgjsPath12125" d="M92.8 80.6 91.1 86l-2.4 1-14.1-2.3-3.3 1.1-5.1 3.3s3.4-5.3 3.5-5.7c.1-.3 2.5-4.1 2.5-4.1l11.6.6 9 .7z" fill="#2a232b" stroke-width="none" opacity="1"></path><path id="SvgjsPath12126" d="m77.5 85.3-.4-.1-1.2-2.9-3.8-2.8 1.8.5 3.1 1.8c.1 0 .3 2.1.5 3.5zm2.9.4h-.2c.1-.9.1-2.4.1-2.6 0-.2.6-1.5 1.1-2.6l.3.1c-.4 1.6-.9 3.9-1.3 5.1zm4.6.8 5.6-5.6h.6c-.8 1.4-2 3.3-2.2 3.5-.2.1-1.8 1.2-3.3 2.2l-.7-.1zm.1-5.6h.2l-1.5 3.6-1.3 1.6-.4-.1 3-5.1zm-16.1 4c1.4-.5 2.6-1 2.8-1 .2-.1 1.3.5 2.2 1.1l-.8.3c-.6-.1-1-.2-1.1-.3-.1 0-1.8.3-3.5.7.1-.3.3-.5.4-.8z" fill="#1b141c" stroke-width="none" opacity="1"></path></g></g></g><g id="svga-group-eyebrows-right-move" transform="matrix(1,0,0,1,0,0)"><g id="svga-group-eyebrows-right-rotate" transform="matrix(1,1.7453292519943295e-9,-1.7453292519943295e-9,1,1.4713126006427046e-7,-2.1039944897438545e-7)"><g id="svga-group-eyebrows-right"><path id="SvgjsPath12127" d="m107.2 80.6 1.8 5.5 2.4 1 14.1-2.3 3.3 1.1 5.1 3.3s-3.4-5.3-3.5-5.7c-.1-.3-2.5-4.1-2.5-4.1l-11.6.6-9.1.6z" fill="#2a232b" stroke-width="none" opacity="1"></path><path id="SvgjsPath12128" d="m122.5 85.3.4-.1 1.2-2.9 3.8-2.8-1.8.5-3.1 1.8c-.1 0-.3 2.1-.5 3.5zm-2.9.4h.2c-.1-.9-.1-2.4-.1-2.6 0-.2-.6-1.5-1.1-2.6l-.3.1c.4 1.6.9 3.9 1.3 5.1zm-4.6.8-5.6-5.6h-.6c.8 1.4 2 3.3 2.2 3.5.2.1 1.8 1.2 3.3 2.2l.7-.1zm-.1-5.6h-.2l1.5 3.6 1.3 1.6.4-.1-3-5.1zm16.1 4c-1.4-.5-2.6-1-2.8-1-.2-.1-1.3.5-2.2 1.1l.8.3c.6-.1 1-.2 1.1-.3.1 0 1.8.3 3.5.7-.1-.3-.3-.5-.4-.8z" fill="#1b141c" stroke-width="none" opacity="1"></path></g></g></g><g id="svga-group-beardwrap"><g id="svga-group-beard-single-move" transform="matrix(1,0,0,1,0,0)"><g id="svga-group-beard-single"><path id="SvgjsPath12116" d="m91.09 140.58 2.53 6.84 6.18 4.31 7.18-5.08 1.98-6.18-9.05 1.11z" fill="#2a232b" stroke-width="none" opacity="1"></path><path id="SvgjsPath12117" d="m105.2 140.93-5.28.64-6.43-.72c.83 1.65 2.62 5.13 2.93 5.33.4.27 3.09 3.23 3.09 3.23l4.84-3.36.85-5.12z" fill="#1b141c" stroke-width="none" opacity="1"></path></g></g></g><g id="svga-group-mustache-single-move" transform="matrix(1,0,0,1,0,0)"><g id="svga-group-mustache-single"><path id="SvgjsPath12399" d="m98.1 118.8 1.3 1.6-.7 4.4-5.4.9.2-1.4-.9 1.6-4.9.9.2-1.3-1.2 1.5v-.9l-.9 1.1-3.1-.3.6-1.5-1 1.2-.2-1.8s2.9-3.3 3.1-3.4 7.6-2.6 7.6-2.6h5.3zm4.3 0-1.3 1.6.7 4.4 5.4.9-.2-1.4.9 1.6 4.9.9-.2-1.3 1.2 1.5v-.9l.9 1.1 3.1-.3-.6-1.5 1 1.2.2-1.8s-2.9-3.3-3.1-3.4-7.6-2.6-7.6-2.6h-5.3z" fill="#2a232b" stroke-width="none" opacity="1"></path><path id="SvgjsPath12400" d="M95.8 125c0 .2-.1-2-.1-2s-.5 1.3-.9 2.5l3.9-.6.7-4.4-1.3-1.6-5.3-.1s-7.4 2.5-7.6 2.6-3.1 3.4-3.1 3.4l.2 1.8 1-1.2-.6 1.5 1.8.2.3-2.2 2.1-2.5-1 2.4-.5 2.2.8-1.5 3.1-4.4-.5 2.2-.5 3 .9-3 1.4-3.3 3 .5-1.7 5 2.5-4.6-.7 3.6 1.4-3.6 3.7.7c-.3 1.2-.9 3-1 3.2-.1.3-1.2.3-1.2.3l.4-3.1s-1.2 2.8-1.2 3zm22.6-.3-.5.6-1.4-1.8.3 1.4-2.3-2.8 2.5 4.4-1.8-.1-1.8-2.1.1 1.2-2.7-4.7 1.4 5.1-.9-1.7.1 1.8-2.9-6.2 1.5 6.1-1.2-.9.4 1.2 3.6.6-.2-1.3 1.2 1.5v-.9l.9 1.1 3.1-.3-.6-1.5 1 1.2.2-1.9zm-10.7-6-5.3.1-1.3 1.6.7 4.4 2.7.4-1.1-1.7.3 1.4-.9-.5-.9-2.5 1-1.4 1.8 4.1-.3-2.6 1.1 2.9-1.2-5.2.8-.2 1.1 4.2V120l1.8 4.5-.9-4.5s.5-.6 1-1.1c-.1-.1-.4-.2-.4-.2z" fill="#221b23" stroke-width="none" opacity="1"></path></g></g><g id="svga-group-nose-single-move" transform="matrix(1,0,0,1,0,0)"><g id="svga-group-nose-single"><path id="SvgjsPath12340" d="M95.61 108.49H93.8l-1.54 8.24 3.42.42 3.28 5.52 2.94.07 3.49-5.73 3.28-.42-1.67-8.03-1.89-.14-1.12-11.46-3.49-4.12-3.77 4.54z" fill="#f1cab5" stroke-width="none" opacity="1" transform="translate(0 1)"></path><path id="SvgjsPath12341" d="m107.24 108.16-1.71-.1-2.47-20.99 1.9 24.11.29-1.85 1.23-.49 1.52 7.32-2.28.19-.19-1.17.76-.78h-1.14l-3.13 7.42h-3.24l-3.13-7.42h-1.14l.76.78-.19 1.17-2.28-.19 1.52-7.32 1.23.49.29 1.85 1.9-24.11-2.47 20.99-1.71.1-2 9.07 3.33.3 3.99 5.56h3.04l3.99-5.56 3.33-.3z" fill="#d29574" stroke-width="none" opacity="1" transform="translate(0 1)"></path><path id="SvgjsPath12342" d="M101.2 118.96s2.39-7.16 2.25-7.58c-.14-.42-2.11-20.79-2.11-20.79l-.56 19.8.42 8.57z" fill="#f9d8c7" stroke-width="none" opacity="1" transform="translate(0 1)"></path></g></g><g id="svga-group-hair-front"><path id="SvgjsPath12412" d="m52.3 65.2-7.5 17 6.3-4.9s-1 5.2-2.9 9.9c-1.7 4.2-3.8 8.8-5.6 11.2 0 0 3.9-1.4 6.5-4.6l.5 10.6L57.4 88l6.1 11 1-15.5 2-7.6 2.2-8.7 2.6 12.1.9-12.5 3.7-5.2 9 1.2 10.2-1.4 8.4 2.6 11.6 8.4-4.7-12.4 9.7 2.2 7 6.4 4.7 11.7.6-10.9 4.7 15.8 5.1 13-.3-9.2 4.4 6.1 7.2 8.4-5.3-15.3 6.1 6.6-2.9-10.6-.8-9.7 6.1 4.8-6.1-13.4-8.9-7.6 14.2 4.5-18.7-15 13.5 3.2-13-9.8-13-3.2 1.1-5.8 10-5.3-15.1 3.2-10.9 3.9 4.2-11.6-11.5 10.4 1.2-7.4-8.3 9.7 1.8-6.8L86.7 38l.6-5.6-3.5 4.1 1.3-7.9-5.9 7.9-.2-5.4-7.6 10.1-1.8-4.3-1.3 5.8-6.1-11.2.8 16.8-5.7-8.7.7 12.8-10.5 9.8 10.9-4.8-6.1 7.8z" fill="#2a232b" stroke-width="none" opacity="1"></path><path id="SvgjsPath12413" d="m77.3 58.8 10.3.7 13.7-3.4 9.4-10.6L116 42l-7.7 1.7-7 9.4s-13 4.3-13.7 4.3c-.7 0-10.3 1.4-10.3 1.4zm-2.2-4 7-5 2.7-6.5-4.1 6-5.6 5.5zm-6.5-3.2 7.7-4.6 4.6-5.3-3.6 6.7-8.7 3.2zm-5-14.9L65.5 49l-.7 7.5-2-8.1.8-11.7zM47.3 62.2l10.9-4.8 4.9-.5-5-1.7-10.8 7zm25.9-1.7L70.5 66v5.3l-1.7-6 4.4-4.8zm-7.7 6.8-4.3 14 1.4 13.9L59 81l6.5-13.7zm-15.2 32.9 6-12.8 1.5-10.6-3.6 10.8-3.9 12.6zm46.5-40.4 9.9 3.1 6.3 6.7-4.6-8.7-11.6-1.1zm13.2-4.1s11.1 3.8 11.8 3.8 15.4 1.2 15.4 1.2L142 62l-5.3-3.4-14.9-.7-11.8-2.2zm7.5-11.3 5.3-3.1 3.1-9-4.5 8-3.9 4.1zm18.3 22.4c0 .7.5 11.8.5 11.8l4.6 12.8-2.2-13-2.9-11.6zm6 3.1s6 8.2 6.5 9.9c.5 1.7 3.9 10.3 3.9 10.3l-5.5-7.9-4.9-12.3zm-22.9-21.2c.7-.7 18-4.3 18-4.3l13.8 6.7-13.5-3.2-18.3.8z" fill="#3a353a" stroke-width="none" opacity="1"></path></g><g id="svga-group-glasses-single-move" transform="matrix(1,0,0,1,0,0)"><g id="svga-group-glasses-single"><path id="SvgjsPath12374" d="m65.4 93.1.5 5.4 3.7 4.7 9.8 2.1 7.9-1 6.2-4.1 1.9-6.1-3.2-3.1-8.4-1.1H77.4l-5.2-.1-4.4.9-2.4 2.4z" fill="#ffffff" stroke-width="none" opacity="0.44"></path><path id="SvgjsPath12375" d="m134.6 93.1-.5 5.4-3.7 4.7-9.8 2.1-7.9-1-6.2-4.1-1.9-6.1 3.3-3.1 8.4-1.1H122.7l5.2-.1 4.4.9 2.3 2.4z" fill="#ffffff" stroke-width="none" opacity="0.44"></path><path id="SvgjsPath12376" d="M95.6 93.9s3.8-1.7 8.6 0l.2 1s-5.7-.9-9 .1l.2-1.1z" fill="#070201" stroke-width="none" opacity="1"></path><path id="SvgjsPath12377" d="m92.3 90.6-8.6-1.1h-6.4l-5.3-.2-4.5.9-2.2 2.3h-2.5v2.1h2.4v.1l.4 3.9 3.9 4.9 9.9 2.1h.1l8-1.1 6.4-4.3 2.1-6.4-3.7-3.2zm.9 9.3-6 4-7.8 1-9.6-2-3.6-4.5-.5-5.2 2.1-2.3L72 90l5.2.1h6.4l8.3 1.1 3.1 2.9-1.8 5.8z" fill="#26120b" stroke-width="none" opacity="1"></path><path id="SvgjsPath12378" d="m104.1 94 2.1 6.4 6.4 4.3 8 1.1h.1l9.9-2.1 3.9-4.9.4-3.9v-.1h2.4v-2.1h-2.5l-2.2-2.3-4.5-.9-5.3.1h-6.4l-8.6 1.1-3.7 3.3zm.8.2 3.1-2.9 8.3-1.1h6.4l5.2-.1 4.2.9 2.1 2.3-.5 5.2-3.6 4.5-9.6 2-7.8-1-6-4-1.8-5.8z" fill="#26120b" stroke-width="none" opacity="1"></path></g></g></g></g></g><rect id="svga-credit-rect" width="200" height="15" x="0" y="185" fill="#ecf0f1" opacity="0.5" style="display: none;"></rect><text id="svga-credit-text" font-family="Avenir Next, Roboto, Helvetica, Arial, sans-serif" font-size="10px" text-anchor="start" font-weight="400" size="10px" anchor="start" weight="400" fill="#333333" x="33.40447998046875" y="182.60824704170227" style="display: none;"><tspan id="SvgjsTspan12115" dy="13" x="33.40447998046875">Created on AvatarMaker.com</tspan></text></g><defs id="SvgjsDefs12062"></defs></svg>