<svg xmlns="http://www.w3.org/2000/svg" version="1.1" width="600px" height="600px" viewBox="0 0 200 200" style="overflow:hidden!important;"><g id="svga-group-wrapper"><g id="svga-group-backs-single"><path id="SvgjsPath15076" d="M0 0h200v200H0V0z" fill="#ecf0f1" stroke-width="none" opacity="1"></path></g><g id="svga-group-humanwrap-move" transform="matrix(1,0,0,1,0,-2)"><g id="svga-group-humanwrap" transform="matrix(0.8499994000000002,0,0,0.8499994000000002,14.962553126569162,18.459741235214977)"><g id="svga-group-hair-back-move" transform="matrix(1,2.856368900253737e-18,-2.856368900253737e-18,1,0,0)"><g id="svga-group-hair-back"><path id="SvgjsPath15161" d="M61.7 93.5s-5.2 14.9-5.8 24.5c-.6 9.6-1 17.8-.9 18.9 0 0 1.8 3.4 3.4 4.6l1.5-.6s.9 5.1 3.1 6.4l4.4-.8s3.9 2.8 4.8 2.7c.9-.1 2.9-.8 3.9-3.3 0 0 4.9 2.9 6-.4.1-.3-2.7-45.6-2.7-45.6s-7.5-9.7-17.7-6.4zm57.3 2.2s-.3 28.1-.2 31.9 1 17 1.5 17.5 4.4 1.5 4.4 1.5l4-3.7 1.4 3.2s5-.1 6-2c.3-.7.8-5.2.8-5.2s4.2.4 4.5-.9c.1-.4.7-4.5.2-6.8 0 0 2.8-1.8 3.1-3.9s-.3-9.5-3.4-19.2-4.5-18.5-4.5-18.5-9.7-2.9-17.8 6.1z" fill="#2a232b" stroke-width="none" opacity="1"></path><path id="SvgjsPath15162" d="M144.4 119.5c-2.2-9.9-4.5-20-7.4-29.7-.1-.4-.6-.2-.6.2 1.1 6.3 2.8 12.5 4.3 18.7 1.3 5.4 7.2 20.4-.9 22.4-.5-.7-1-1.4-1.5-2-.4-.5-.7-1.2-1.3-1.3-.4-5.3-1.2-10.7-1.6-16-.4-5.4-.3-10.9-.8-16.3 0-.3-.5-.3-.5 0-.7 5.6-.2 11.4.1 17.1.4 5.1.5 10.6 2.1 15.6.1.2.2.3.4.2.1.5.6.9.9 1.3.5.7 1.1 1.4 1.6 2.1 0 .3.3.6.7.6 6.2-1.7 5.6-8.2 4.5-12.9zm-2.7 12.2s-.2-.1-.2 0c-.1 0-.1.1-.1.1-.1.1-.3.3-.2.4.2 1.7.2 3.4-.1 5.1-.7.3-1.3.7-2.1.9-.9.2-1.7.1-2.6.2-.1 0-.2.1-.2.1-.3-5.8-1.7-11.6-2.6-17.3-1.1-6.7-2-13.4-3-20.2 0-.3-.5-.2-.5.1.2 6.2 1.2 12.3 2.1 18.3-.1-.2-.2-.5-.2-.7-.2-.5-1-.3-.8.2.3.9.5 1.8 1 2.6.1.1.3.2.4.1.9 5.8 1.7 11.8 3.2 17.5.1.2.4.2.4-.1l.1.1h.2c-.3 1.5-.5 3-.5 4.6v.1c-.9.2-1.8.7-2.6 1-1 .3-2.1.5-3.2.5h-.1c-4.4-16.1-7-31.7-5.6-48.5.1-.7-1-.7-1.1 0-1.3 15.1-.2 31.4 4.9 45.8-1.4 1-2.7 2.2-4 3.4-.5-.2-1.1-.4-1.6-.5-.7-.2-1.4-.5-2.1-.4.3-16.2-1.3-32.5-.9-48.8 0-.8-1.2-.8-1.2 0-.3 16.1-1.1 33.2 1.6 49.2 0 .1.1.1.2.1v.1c.6.4 1.4.5 2.1.7.6.1 1.1.3 1.7.3.2.3.5.4.8.2 1.2-1 2.5-2.1 3.6-3.2.3.8.6 1.6.9 2.3 0 .3.2.6.6.6 2 0 4.9-.5 6.1-2.2.3.1.6-.1.6-.4.2-1.5.2-3 0-4.4 1.4.2 3.2-.3 4.4-1.1.3.1.7 0 .8-.3.4-1.9.3-3.9.1-5.8 0-.5-.1-.7-.3-.7zm-62-31.6c-.1-.6-.9-.6-.9 0 .3 7.9 1 15.9 1.5 23.8.4 7.1.5 14.3 1.5 21.3-.1 0-.2 0-.2.1-1.6 1.4-3.3 1.1-5 .3.7-3.4-.1-8.2-.3-10.4-.8-12.2-.1-24.2 1.1-36.3 0-.4-.7-.6-.8-.1-1.2 7.6-1.6 15.3-1.6 23 0 3.8.1 7.6.3 11.5.2 2.8 2.7 15.8-3.4 15.3 0-.2-.1-.4-.3-.5-1.2-.3-2.5-1-3.5-1.9.8-8.8.7-17.6 1-26.4.3-8.8 1.1-17.8.7-26.6 0-.4-.6-.4-.7 0-1 8.8-.7 17.8-1 26.6-.3 8.7-.9 17.5-.6 26.2l-.1.1h-.1c-.7.1-1.4.2-2.2.4-.7.1-1.3.2-2 .4-.8-.8-1.5-1.7-1.9-2.8-.4-.9-.6-2-1-2.9l2.4-1.2c.3-.1.3-.5.1-.6-.4-7.6-.6-15.1 0-22.6.6-8.2 2.5-16.1 3.9-24.2.1-.3-.4-.4-.5-.1-5 14.5-5.8 31.8-4 46.9-1.1.6-2.3 1.1-3.4 1.8-.3-.7-1.2-1.2-1.7-1.8-.7-.8-1-1.7-1.5-2.6 0-.1-.1-.1-.2-.2.7-7.3.5-14.6 1.6-22 1.1-7.1 3-13.9 5-20.8.1-.5-.6-.7-.7-.2-2.8 7.6-4.5 15.6-5.6 23.5-.9 6.7-1.9 14-.9 20.7 0 .2.2.2.4.1.3.7.7 1.4 1.1 2.1.5.6 1.1 1.5 1.9 1.7 0 .2.1.3.3.3.4-.1.8-.3 1.2-.4-.3 2.2 1.3 4.6 2.8 6.1.2.1.3.2.5.1.7 0 1.3-.2 2-.3.8-.1 1.6-.2 2.4-.4.1 0 .2-.1.2-.2h.1c.4.5.7.9 1.2 1.2.6.4 1.3.8 2.1 1 0 .1.1.3.3.3 2.9.6 4.3-.7 5-2.8 1.7 1.2 4.4.7 5.8-.6.1 0 .2-.1.2-.2.2-7.6-.7-15.3-1.2-22.8-.3-7.7-.7-15.3-1.3-22.9zM56.5 128c.2 2.2 1.2 5 3.2 6.2.2.2.5-.1.4-.4-.5-.9-1.3-1.7-1.8-2.6-.5-1-.9-2.1-1.3-3.2-.1-.4-.5-.3-.5 0zm1.7-5.8c-1 2.1 0 5.1 1.2 6.9.2.3.6 0 .5-.3-.5-1.2-.9-2.3-1.1-3.6-.1-1 0-2-.2-3 0-.1-.3-.1-.4 0zm2.7-4.2c-.1-.2-.5-.2-.5.1 0 .9.1 1.7 0 2.6-.1 1-.4 1.9-.7 2.8-.1.3.3.4.4.2 1.2-1.5 1.5-3.9.8-5.7zm-2.1.5c-.1.2.3.4.4.2.8-1.7 1.4-3.8.9-5.6-.1-.3-.5-.3-.5 0-.4 1.8-.4 3.6-.8 5.4zm1.4-8.3c.3-.8.2-1.8.2-2.6 0-.4-.6-.4-.7 0-.1.8-.3 1.8-.1 2.6.2.2.5.2.6 0zm3.1 30c.1 1.2.8 3 2.1 3.3.3.1.4-.2.3-.4-.4-.5-.9-.8-1.2-1.3-.3-.5-.6-1-.7-1.6-.1-.3-.6-.3-.5 0zm2.9-1.4c-.2-.8-.8-1.4-1.2-2.1-.4-.9-.7-1.8-.9-2.8 0-.2-.4-.2-.4.1 0 1.7.5 4.3 2.1 5.2.2 0 .4-.2.4-.4zm-.3-8.4c-.4.8-.4 1.9-.6 2.8-.1.4.5.5.6.1.2-.9.6-1.9.5-2.8 0-.2-.3-.4-.5-.1zm67.7 12.1c.4-.4.6-.9.8-1.4l.6-1.5c.1-.4-.4-.6-.6-.2l-.9 1.5c-.2.4-.5.9-.5 1.4.1.3.4.4.6.2zm-.3-6.3c-.2.6-.7 1.1-1 1.7-.1.2.2.4.4.4.8-.2 1.2-1.2 1.3-1.9.1-.5-.5-.7-.7-.2zm6-1.5c.3 0 .4-.4.1-.5-.5-.4-1.1-.5-1.5-1-.2-.2-.6.1-.4.3.4.6 1.1 1.3 1.8 1.2zm-2.4 1.8c.4.4.9.7 1.4.6.2-.1.2-.3 0-.4-.4-.1-.7-.2-1.1-.5-.2-.3-.5 0-.3.3zm1.4-13.2c.3.7.6 1.3 1.1 1.9.4.5 1.1 1.2 1.8 1.3.2 0 .6-.2.4-.5-.4-.5-1-.8-1.4-1.2-.5-.5-.9-1.1-1.3-1.7-.2-.4-.7-.2-.6.2zm1.1-4.5c.1.7.5 1.3 1 1.8.5.4 1.2.8 1.9.6.2-.1.3-.4.1-.5-.4-.3-.9-.4-1.4-.7-.5-.3-.8-.8-1-1.4-.2-.3-.7-.1-.6.2zm.7-5c.6-.5.8-1.5.8-2.2 0-.3-.4-.3-.4 0 0 .8-.4 1.3-.7 2-.1.2.2.3.3.2zm-1.1-5.7c-.1.5-.2 1.1-.1 1.6.1.3.4.2.5 0 .2-.5.2-1.1.2-1.6.1-.4-.5-.4-.6 0zm-68.3 34c-.3-.2-.7.1-.4.4.5.5 1 1.1 1.6 1.4.2.1.5-.1.4-.4-.4-.6-1.1-1-1.6-1.4zm2.2-1.8c.2 0 .3-.3.2-.4-.4-.4-.9-.6-1.3-1-.5-.4-.8-.8-1.1-1.4-.2-.3-.7 0-.5.3.4 1 1.5 2.5 2.7 2.5zm-1.9-9.7c1.4-.5 2-2.1 1.7-3.5-.1-.4-.7-.3-.7.1.1 1.2-.5 2.1-1.3 2.8-.3.3 0 .7.3.6zm-5.1-7c.2.1.4-.1.3-.2-.1-.6-.6-1.1-.9-1.5-.4-.5-.8-1.1-1.3-1.6-.2-.2-.6.1-.4.3.4.6.7 1.1 1.1 1.7.4.5.7 1 1.2 1.3zm64 5.3c.3 0 .3-.3.2-.5-.2-.3-.6-.5-.9-.8-.3-.3-.5-.7-.7-1.1-.2-.4-.8-.2-.7.2.4 1 1.1 2.2 2.1 2.2zm-6 12.5c.8-.4 1.3-1.3 1.6-2.1.1-.3-.4-.5-.5-.1-.2.8-.8 1.4-1.2 2-.2.1 0 .2.1.2zm-1.5-5.5c.4-.3.7-.8 1.1-1.2.2-.2-.2-.6-.4-.4-.3.4-.8.8-1 1.3-.1.3.1.5.3.3z" fill="#1b141c" stroke-width="none" opacity="1"></path></g></g><g id="svga-group-humanbody-back"><path id="SvgjsPath15013" d="M180.8 184.9c-2.3-3.4-38.9-17.8-38.9-17.8l-13.4-5.2-5.6-68.8H76.8L71.3 162l-13.4 5.2S21.4 181.6 19 185c-2.3 3.4-3.3 14.9-3.3 14.9V219h168.5v-19.2c-.1.1-1-11.5-3.4-14.9z" fill="#f1cab5" stroke-width="none" opacity="1"></path></g><g id="svga-group-chinshadow-single"><path id="SvgjsPath15009" d="M83.41 160.9c3 1.6 18.4 1.6 21.4 0 2.3-1.22 14.94-13.04 22.02-20.04l-3.89-47.76H76.82l-4.61 58.02c5.18 4.83 9.98 9.09 11.2 9.78z" fill="#d29574" stroke-width="none" opacity="1"></path></g><g id="svga-group-humanbody-front"><path id="SvgjsPath15014" d="M184.5 219c-.1-6.4-.1-12.8-.1-19.2l-.3-.1s.1-.1.2 0c.1 0 .1.1.1.1v-.4l-.1-.5-.1-.9-.2-1.9c-.2-1.3-.4-2.5-.6-3.8-.2-1.3-.5-2.5-.9-3.8-.4-1.2-.8-2.5-1.5-3.6-.8-.9-1.9-1.5-2.9-2.1-1-.6-2.1-1.1-3.2-1.7-2.1-1.1-4.3-2.1-6.5-3.1-4.4-2-8.7-3.9-13.1-5.7-4.4-1.9-8.8-3.7-13.2-5.5l-13-5.2-1.2-16.9c-.4-5.7-.9-11.5-1.3-17.2l-1.3-17.2-1.5-17.3-.1-.8h-.8c-7.7 0-15.4.1-23.1.1l-23.1.2h-.5v.5L75 110.2l-1.3 17.2c-.8 11.4-1.8 22.8-2.8 34.2-5.6 2.1-11.2 4.2-16.7 6.4-5.6 2.2-11.2 4.5-16.8 6.9-2.8 1.2-5.6 2.4-8.3 3.6-2.8 1.3-5.5 2.5-8.2 4.1-.7.4-1.3.8-2 1.4-.2.1-.4.4-.5.6l-.3.6c-.2.4-.4.7-.5 1.1-.6 1.5-1 3-1.3 4.5-.6 3-1.1 6-1.4 9.1l-.1 19.1v.9h.9l42.1.1H100c14 0 28.1-.1 42.1-.2l42.1-.5h.3v-.3zm-84.5-1-42.1-.1-41.2.1-.1-18.1c.3-3 .6-5.9 1.2-8.9.3-1.4.6-2.9 1.1-4.2.1-.3.3-.7.4-.9l.2-.4.3-.3c.5-.4 1.1-.8 1.8-1.2 2.5-1.5 5.3-2.8 8-4.1 2.7-1.3 5.5-2.5 8.2-3.7 5.5-2.4 11.1-4.8 16.7-7.1s11.2-4.5 16.9-6.7l.2-.1v-.2c.9-11.5 1.7-23 2.7-34.4l1.4-17.2 1.5-16.7 22.6.2c7.4.1 14.8.1 22.3.1l1.3 16.4 1.5 17.2c.5 5.7 1 11.5 1.5 17.2l1.6 17.2v.3l.3.1 13.4 5c4.4 1.7 8.9 3.4 13.3 5.2 4.4 1.8 8.8 3.7 13.2 5.6 2.2 1 4.3 2 6.5 3 1.1.5 2.1 1.1 3.2 1.6 1 .6 2.1 1.2 2.9 2 .7 1.1 1.1 2.3 1.4 3.5.3 1.2.6 2.5.8 3.7.2 1.3.4 2.5.6 3.8l.2 1.9.1.9.1.5v.4c0 6.3 0 12.6-.1 18.9l-41.8-.5c-14 .1-28.1 0-42.1 0z" fill="#c37d58" stroke-width="none" opacity="1"></path><path id="SvgjsPath15015" d="M125.1 142.4s-1.8 23-9.1 32.9c0 0 7.9-25 9.1-32.9zm-34.5 16s5 7.9 11.5 10.1c0 0-9.5 2.2-11.5-10.1zM73.4 140c6.7 25.6 6.7 25.6 8.5 30.7 0 0 .4-12.6-8.5-30.7z" fill="#d29574" stroke-width="none" opacity="1"></path></g><g id="svga-group-clothes-single"><path id="SvgjsPath15213" d="M187 220c0-12.4-1.8-33.5-4-36.1s-36.9-16.9-39.5-17.6-13.8-4.8-13.8-4.8l-.9-15s-3 1.6-8.2 3.6c-12.8 4.9-14.6 4.2-17.3 6.4s-2 12.2-2 12.2l-2.1-.2s-.2-10.4-3-12.5c-2.8-2.1-11.1-3.1-17.9-5.9-5.2-2.1-7.7-3.5-7.7-3.5l-.9 15s-11.1 4.1-13.7 4.8-37.3 15-39.5 17.6-4 23.7-4 36.1H187z" fill="#393939" stroke-width="none" opacity="1" stroke="none"></path><path id="SvgjsPath15214" d="M90.2 179.4h19.7v3.4H90.2v-3.4zm0 14.8h19.7v3.4H90.2v-3.4zm0 14.7h19.7v3.4H90.2v-3.4z" fill="#939393" stroke-width="none" opacity="1"></path><path id="SvgjsPath15215" d="M187.1 214.3c0-1.9-.1-3.8-.2-5.7-.2-3.8-.4-7.5-.7-11.3-.4-3.8-.8-7.5-1.7-11.3-.1-.5-.2-.9-.4-1.4-.2-.4-.4-1-.8-1.4-.9-.7-1.7-1.1-2.5-1.6-1.7-.9-3.4-1.8-5.1-2.6-6.8-3.3-13.8-6.3-20.7-9.2-3.5-1.4-22.9-8-24.4-8.9-.2-4.8-.6-9.7-.9-14.5l-.1-1.6-1.3.9c-1.4 1-3 1.8-4.7 2.4-1.7.7-8.1 3.3-11.7 4.3-1.8.5-3.6 1-5.3 1.6-.9.3-1.8.6-2.6 1.1-.2.1-.4.2-.7.4s-.4.3-.6.5c-.4.4-.7.9-.9 1.3-.8 1.9-1 3.8-1.1 5.6-.1 1.7-.1 3.3 0 5l-1.1-.1c-.1-1.7-.2-3.4-.5-5.1-.3-1.9-.6-3.7-1.5-5.5-.2-.4-.5-.9-.8-1.3-.2-.2-.4-.4-.6-.5-.2-.1-.4-.3-.6-.4-.9-.4-1.8-.8-2.7-1-1.8-.6-19.4-5.8-22.3-7.8l-.4-.1-.1.4-.9 14.8c-1.6.9-12.2 4.3-14 4.8-3.6 1.3-7.1 2.7-10.6 4.1-7 2.8-14 5.7-20.8 8.9-1.7.8-3.4 1.6-5.1 2.5-.4.2-.8.5-1.3.7-.4.3-.8.5-1.3.9s-.7 1-.9 1.5c-.2.5-.3.9-.5 1.4-1 3.8-1.4 7.5-1.9 11.3-.8 7.5-1.3 15.1-1.4 22.7v.9h1c14.6 0 29.2.1 43.8.1 14.6-.1 29.2 0 43.8-.1l43.6-.4 43.3-.5c0-.5.1-1 .1-1.5v-1.4l.1-2.9zm-85.2-51c.2-1.8.4-3.6 1.1-5.2.2-.4.4-.7.6-.9.1-.1.3-.2.4-.3.2-.1.3-.2.6-.3.8-.4 1.6-.7 2.5-1 1.7-.6 8.8-2.1 21-7.5.2 4.5.5 9 .8 13.5v.4c-2.4 1.2-8 5.3-15.8 6.3-1.5.2-2.9.4-4.4.5-2.3.2-4.6.3-6.8.2v-.3c-.1-1.8-.1-3.6 0-5.4zm-2.1 33.9c-1.6 0-3.2.1-4.8.2-1.6.1-3.1.1-4.7.1 0-1 .1-1.9.1-2.9 3.2.2 6.4.2 9.6.2 3.2 0 6.4-.1 9.6-.2.1 1 .2 2 .2 3-1.8-.1-3.4-.2-5.1-.3-1.6-.1-3.2-.1-4.9-.1zm.2 12.2c3.2 0 6.4-.1 9.6-.2.1 1 .2 2 .2 3-1.8-.1-3.4-.2-5.1-.3-1.7-.1-3.3-.1-4.9-.1s-3.2.1-4.8.2c-1.6.1-3.1.1-4.7.1 0-1 .1-1.9.1-2.9 3.2.1 6.4.2 9.6.2zm-.5-15.7v-3.6 3.6zm.3-11.3c-.1 0-3.3.1-4.8.2-1.6.1-3.1.1-4.7.1 0-1 .1-1.9.1-2.9 3.2.2 6.4.2 9.6.2 3.2 0 6.4-.1 9.6-.2.1 1 .2 2 .2 3-1.8-.1-3.4-.2-5.1-.3-1.6-.1-3.2-.1-4.9-.1zm-29-35.3c3 1.9 13.1 5.4 16.7 6.3 1.8.4 3.6.9 5.3 1.5.9.3 1.7.6 2.5 1l.5.3c.2.1.3.3.4.4.2.3.5.7.7 1.1.7 1.6 1 3.5 1.3 5.3.2 1.8.4 3.7.4 5.5v.4c-5.5-.2-10.9-1-16.3-2.2-2.9-.6-9.2-3.4-12.4-5.5l.9-14.1zm-56.1 50.4c.4-3.7.8-7.5 1.6-11.1.1-.4.2-.9.4-1.3.1-.4.3-.8.5-.9.2-.2.6-.5 1-.7.4-.2.8-.5 1.2-.7.3-.1.5-.3.8-.4 1 1.3 1.9 2.6 2.7 4 .9 1.4 1.6 2.9 2.3 4.4 1.4 3 2.6 6.1 3.4 9.2s1.4 6.4 1.9 9.7c.4 3 .8 6.1 1.1 9.2-6 0-12 .1-18.1.1.1-7.1.5-14.3 1.2-21.5zm84.7 21.6c-14.5-.1-29-.1-43.4-.1H31.7c0-1.4 0-2.9-.1-4.3-.1-1.7-.2-3.3-.4-5-.3-3.3-.9-6.6-1.6-9.9-.8-3.2-2.1-6.4-3.7-9.3-1.6-2.9-3.4-5.7-5.7-8.1l4.2-2.1c6.8-3.2 13.7-6.2 20.6-9.2 3.5-1.4 7-2.9 10.5-4.2 1.8-.5 12.7-4.1 14.3-5.1 0 0 6.8 4.2 12.4 5.6 5.8 1.4 11.7 2.2 17.6 2.5h.1c-.1 1.9-.1 3.7-.2 5.6l-.1 3.4c-3.2 0-6.3.1-9.5.2h-.3v.3c0 1.1.1 2.2.1 3.4v.2h.2c1.7 0 3.3 0 5 .1 1.5.1 2.9.1 4.4.1v3.7c0 2.3 0 4.6-.1 6.9-3.1 0-6.2.1-9.3.2h-.3v.3c0 1.1.1 2.2.1 3.4v.2h.2c1.7 0 3.3 0 5 .1 1.5.1 2.9.1 4.4.1 0 3.5 0 6.9.1 10.4-3.2 0-6.3.1-9.4.2h-.3v.3c0 1.1.1 2.2.1 3.4v.2h.2c1.7 0 3.3 0 5 .1 1.5.1 3.1.1 4.6.1.1 3 .1 3.7.2 6.5l-.6-.2zm43.6.4-43-.3c.2-2.7.2-3.5.2-6.5 1.7 0 3.3-.1 4.9-.1 1.6-.1 3.2-.1 4.8-.3.1-1.1.2-2.2.2-3.4v-.3h-.3c-3.2-.2-6.3-.2-9.5-.2.1-3.4.1-7 .1-10.4 1.6 0 3.1-.1 4.6-.1 1.6-.1 3.2-.1 4.8-.3.1-1.1.2-2.2.2-3.4v-.3h-.3c-3.1-.2-6.2-.2-9.4-.2 0-3.9 0-6.6-.1-10.5 1.6 0 3.2-.1 4.7-.1 1.6-.1 3.2-.1 4.8-.3.1-1.1.2-2.2.2-3.4v-.3h-.3c-3.2-.2-6.3-.2-9.5-.2l-.1-3.4c-.1-1.9-.1-3.7-.2-5.6 2.9.1 5.8 0 8.8-.3 3-.3 5.8-.9 8.7-1.6 5.8-1.4 11.8-5.8 11.8-5.8 1.6 1 11 3.6 11.9 4 .4.2 9.7 3.7 13.2 5.1 7 2.9 13.9 5.8 20.8 8.9 1.3.6 2.5 1.2 3.8 1.8-2.1 2.6-3.7 5.4-5 8.5-1.4 3-2.3 6.3-2.7 9.6-.4 3.3-.7 6.6-.7 9.9 0 3.2.1 6.5.4 9.7l-27.8-.2zm27.9.3c0-1.6 0-3.1.1-4.7 0-1.6.1-3.3.2-4.9.2-3.3.5-6.6.9-9.8.4-3.2 1.3-6.4 2.4-9.4.6-1.5 1.2-3 2-4.5.7-1.5 1.5-2.9 2.3-4.2.4.2.9.4 1.3.6.8.4 1.7.9 2.3 1.4.2.2.4.6.6 1 .2.4.3.9.4 1.3.9 3.6 1.4 7.3 1.9 11.1.4 3.7.8 7.5 1.1 11.2.1 1.9.2 3.8.3 5.6l.2 5.6-16-.3z" fill="#1a1a1a" stroke-width="none" opacity="1" stroke="none"></path></g><g id="svga-group-head" transform="matrix(1,2.856368900253737e-18,-2.856368900253737e-18,1,0,0)"><g id="svga-group-ears-left-move" transform="matrix(1,0,0,1,0,0)"><g id="svga-group-ears-left"><path id="SvgjsPath14903" d="M69.12 87.77s-3.29-8.06-6.27-11.95c0 0-1.72-1.36-3.37-2.59a2.608 2.608 0 0 0-3.59.45c-1.89 2.35-5.15 6.65-7.88 11.59-.45.82-.63 1.77-.48 2.7.34 2.01 1.03 5.64 1.87 7.11 1.19 2.09 6.12 7.32 9.56 9.11 0 0 3.88.6 6.87-2.09s3.29-14.33 3.29-14.33z" fill="#f1cab5" stroke-width="none" opacity="1"></path><path id="SvgjsPath14904" d="M67.06 88.73c-.08-.25-6.48-8.56-8.98-10.14-2.49-1.58-7.73 6.57-7.98 9.31s2.49 7.9 4.82 9.39c2.33 1.5 7.56 2.08 10.47-2.16 2.91-4.24 1.67-6.4 1.67-6.4z" fill="#e2af93" stroke-width="none" opacity="1"></path><path id="SvgjsPath14905" d="M47.63 85.77c-.18.46-.28.95-.31 1.44-.03.5.07.99.14 1.45.15.94.32 1.89.51 2.83.2.94.42 1.88.74 2.8.31.95.92 1.78 1.5 2.53 1.19 1.52 2.52 2.91 3.92 4.23 1.41 1.31 2.88 2.57 4.63 3.51l.07.04.06.01c1.97.21 3.93-.17 5.65-1.11.84-.48 1.63-1.08 2.2-1.94.55-.83.84-1.75 1.13-2.65.53-1.82.79-3.68.99-5.54.2-1.86.27-3.72.28-5.6-.39-1.08-.81-2.11-1.25-3.16-.43-1.04-.91-2.07-1.39-3.09-.5-1.02-.99-2.04-1.56-3.02-.57-.98-1.16-1.95-1.85-2.88l-.02-.03-.03-.03-2.24-1.76-1.15-.87c-.44-.31-.96-.5-1.5-.54a2.91 2.91 0 0 0-1.56.32c-.47.23-.88.68-1.14 1.05-.58.76-1.15 1.53-1.71 2.31-2.19 3.13-4.31 6.28-6.11 9.7zm.02 1.45c0-.46.09-.92.25-1.35.81-1.68 1.83-3.33 2.87-4.91 1.05-1.59 2.17-3.13 3.35-4.62.59-.75 1.18-1.49 1.79-2.22.54-.75 1.34-1.14 2.19-1.07.42.03.82.19 1.15.43l1.12.87 2.24 1.7c1.33 1.75 2.42 3.72 3.48 5.68.53.99 1.02 2 1.53 3.01.5 1 .99 2.03 1.46 3.04-.12 1.84-.35 3.7-.62 5.53-.28 1.83-.64 3.66-1.19 5.4-.31.85-.62 1.73-1.12 2.44-.47.69-1.22 1.23-1.99 1.66-1.52.84-3.37 1.17-5.08.99-1.58-.89-3.04-2.07-4.42-3.32-1.4-1.27-2.72-2.64-3.92-4.08-.6-.74-1.16-1.45-1.47-2.32-.34-.86-.6-1.78-.83-2.7-.23-.92-.43-1.85-.62-2.78-.07-.48-.18-.93-.17-1.38z" fill="#e2af93" stroke-width="none" opacity="1"></path><path id="SvgjsPath14906" d="M52.04 87.76c.28-.91.7-1.72 1.16-2.52.45-.79.97-1.54 1.51-2.27s1.12-1.43 1.79-2.06c.17-.16.35-.31.57-.42.11-.05.25-.11.43-.05.16.08.19.19.28.28.25.39.47.78.67 1.19.82 1.61 1.6 3.24 2.26 4.93.33.84.62 1.7.85 2.59.12.44.22.89.3 1.34.06.45.15.96.03 1.45-.21.97-.78 1.74-1.34 2.45-.58.7-1.24 1.33-1.96 1.89l-.05-.06c.61-.66 1.18-1.35 1.68-2.08.5-.72.93-1.52 1.08-2.32.12-.77-.17-1.66-.41-2.5-.26-.85-.52-1.7-.8-2.55-.55-1.7-1.12-3.41-1.88-5.03-.19-.4-.4-.8-.64-1.16-.06-.06-.14-.18-.19-.19-.04-.02-.13 0-.21.05-.17.09-.34.24-.5.39-.63.61-1.13 1.37-1.62 2.11-.93 1.51-1.82 3.1-2.31 4.74-.05.2-.1.41-.11.6-.01.1-.01.18 0 .26.01.09.03.21.05.31.08.42.19.84.33 1.25.28.82.64 1.62 1.07 2.37.11.19.22.37.34.55.06.09.12.17.18.26.06.08.15.17.12.14-.03.01.11.01.27-.06.16-.09.34-.18.5-.31.67-.51 1.29-1.17 1.81-1.85.06-.09.13-.17.18-.26l.08-.13.03-.09c.04-.15.03-.36 0-.56-.06-.42-.18-.84-.32-1.26-.28-.84-.62-1.68-.99-2.5l.07-.04c.48.77.92 1.56 1.29 2.39.18.42.35.85.46 1.31.05.23.09.48.05.78-.02.08-.04.16-.07.24-.03.06-.06.11-.09.16-.06.11-.13.2-.19.3-.53.77-1.12 1.47-1.85 2.09-.18.15-.39.3-.62.43-.24.1-.58.27-1.02.05-.23-.15-.27-.24-.36-.33-.07-.1-.15-.19-.22-.29-.14-.19-.26-.39-.39-.59-.47-.81-.86-1.65-1.13-2.54-.13-.45-.24-.9-.31-1.37-.01-.12-.03-.23-.04-.36-.01-.14-.01-.28.01-.41.04-.27.1-.51.17-.74z" fill="#c37d58" stroke-width="none" opacity="1"></path></g></g><g id="svga-group-ears-right-move" transform="matrix(1,0,0,1,0,0)"><g id="svga-group-ears-right"><path id="SvgjsPath14907" d="M130.88 87.77s3.29-8.06 6.27-11.95c0 0 1.72-1.36 3.37-2.59 1.12-.84 2.71-.64 3.59.45 1.89 2.35 5.15 6.65 7.88 11.59.45.82.63 1.77.48 2.7-.34 2.01-1.03 5.64-1.87 7.11-1.19 2.09-6.12 7.32-9.56 9.11 0 0-3.88.6-6.87-2.09-2.99-2.68-3.29-14.33-3.29-14.33z" fill="#f1cab5" stroke-width="none" opacity="1"></path><path id="SvgjsPath14908" d="M132.94 88.73c.08-.25 6.48-8.56 8.98-10.14 2.49-1.58 7.73 6.57 7.98 9.31s-2.49 7.9-4.82 9.39c-2.33 1.5-7.56 2.08-10.47-2.16-2.91-4.24-1.67-6.4-1.67-6.4z" fill="#e2af93" stroke-width="none" opacity="1"></path><path id="SvgjsPath14909" d="M146.25 76.06c-.56-.78-1.12-1.55-1.71-2.31-.26-.37-.66-.82-1.14-1.05a2.91 2.91 0 0 0-1.56-.32c-.54.04-1.06.23-1.5.54l-1.15.87-2.26 1.77-.03.03-.02.03c-.69.92-1.28 1.89-1.85 2.88-.57.98-1.06 2-1.56 3.02-.49 1.02-.96 2.05-1.39 3.09-.43 1.05-.86 2.08-1.25 3.16.01 1.88.08 3.73.28 5.6.2 1.86.46 3.72.99 5.54.3.9.58 1.82 1.13 2.65.57.86 1.36 1.46 2.2 1.94 1.72.95 3.68 1.32 5.65 1.11l.06-.01.07-.04c1.75-.94 3.22-2.2 4.63-3.51 1.4-1.32 2.73-2.71 3.92-4.23.58-.75 1.19-1.58 1.5-2.53.33-.92.54-1.86.74-2.8.2-.94.36-1.88.51-2.83.07-.46.17-.95.14-1.45-.02-.5-.13-.98-.31-1.44-1.77-3.42-3.89-6.57-6.09-9.71zm5.91 12.54c-.18.93-.38 1.86-.62 2.78-.23.92-.49 1.83-.83 2.7-.31.87-.87 1.58-1.47 2.32a41.929 41.929 0 0 1-3.92 4.08c-1.38 1.25-2.84 2.43-4.42 3.32-1.71.18-3.55-.15-5.08-.99-.77-.43-1.52-.96-1.99-1.66-.5-.71-.81-1.59-1.12-2.44-.55-1.74-.91-3.57-1.19-5.4-.26-1.83-.49-3.69-.62-5.53.47-1 .96-2.03 1.46-3.04.51-1 1-2.02 1.53-3.01 1.06-1.96 2.15-3.92 3.48-5.68l2.24-1.7 1.12-.87c.33-.25.73-.4 1.15-.43.85-.07 1.65.32 2.19 1.07.61.73 1.21 1.47 1.79 2.22 1.18 1.49 2.3 3.03 3.35 4.62 1.04 1.58 2.06 3.23 2.87 4.91.16.43.25.89.25 1.35.03.45-.08.9-.17 1.38z" fill="#e2af93" stroke-width="none" opacity="1"></path><path id="SvgjsPath14910" d="M147.96 87.76c-.28-.91-.7-1.72-1.16-2.52-.45-.79-.97-1.54-1.51-2.27s-1.12-1.43-1.79-2.06c-.17-.16-.35-.31-.57-.42-.11-.05-.25-.11-.43-.05-.16.08-.19.19-.28.28-.25.39-.47.78-.67 1.19-.82 1.61-1.6 3.24-2.26 4.93-.33.84-.62 1.7-.85 2.59-.12.44-.22.89-.3 1.34-.06.45-.15.96-.03 1.45.21.97.78 1.74 1.34 2.45.58.7 1.24 1.33 1.96 1.89l.05-.06c-.61-.66-1.18-1.35-1.68-2.08-.5-.72-.93-1.52-1.08-2.32-.12-.77.17-1.66.41-2.5.26-.85.52-1.7.8-2.55.55-1.7 1.12-3.41 1.88-5.03.19-.4.4-.8.64-1.16.06-.06.14-.18.19-.19.04-.02.13 0 .21.05.17.09.34.24.5.39.63.61 1.13 1.37 1.62 2.11.93 1.51 1.82 3.1 2.31 4.74.05.2.1.41.11.6.01.1.01.18 0 .26-.01.09-.03.21-.05.31-.08.42-.19.84-.33 1.25-.28.82-.64 1.62-1.07 2.37-.11.19-.22.37-.34.55-.06.09-.12.17-.18.26-.06.08-.15.17-.12.14.03.01-.11.01-.27-.06-.16-.09-.34-.18-.5-.31-.67-.51-1.29-1.17-1.81-1.85-.06-.09-.13-.17-.18-.26l-.08-.13-.03-.09c-.04-.15-.03-.36 0-.56.06-.42.18-.84.32-1.26.28-.84.62-1.68.99-2.5l-.07-.04c-.48.77-.92 1.56-1.29 2.39-.18.42-.35.85-.46 1.31-.05.23-.09.48-.05.78.02.08.04.16.07.24.03.06.06.11.09.16.06.11.13.2.19.3.53.77 1.12 1.47 1.85 2.09.18.15.39.3.62.43.24.1.58.27 1.02.05.23-.15.27-.24.36-.33.07-.1.15-.19.22-.29.14-.19.26-.39.39-.59.47-.81.86-1.65 1.13-2.54.13-.45.24-.9.31-1.37.01-.12.03-.23.04-.36.01-.14.01-.28-.01-.41-.04-.27-.1-.51-.17-.74z" fill="#c37d58" stroke-width="none" opacity="1"></path></g></g><g id="svga-group-faceshape-wrap"><g id="svga-group-faceshape-single"><path id="SvgjsPath14995" d="M140.4 54.9c-2.2-10-6.3-16-15.2-20.8-9.3-5-25.2-4.8-25.2-4.8s-15.9-.2-25.2 4.8c-8.8 4.8-13 10.8-15.2 20.8-.9 4 0 13.6 0 13.6S62 90.8 62 97.3s-.8 25.8.6 27.9c1.4 2.1 23.7 23.4 26.7 25.1 3 1.6 18.4 1.6 21.4 0s25.3-23 26.7-25.1c1.4-2.1.6-21.4.6-27.9s2.3-28.9 2.3-28.9 1-9.5.1-13.5z" fill="#f1cab5" stroke-width="none" opacity="1"></path><path id="SvgjsPath14996" d="M140.4 54.9c-2.2-10-6.3-16-15.2-20.8-9.3-5-25.2-4.8-25.2-4.8s-15.9-.2-25.2 4.8c-8.8 4.8-13 10.8-15.2 20.8-.9 4 0 13.6 0 13.6S62 90.8 62 97.3s-.8 25.8.6 27.9c1.4 2.1 23.7 23.4 26.7 25.1 3 1.6 18.4 1.6 21.4 0s25.3-23 26.7-25.1c1.4-2.1.6-21.4.6-27.9s2.3-28.9 2.3-28.9 1-9.5.1-13.5zm0 10.1c-.1 1.1-.2 2.3-.3 3.4-.8 6.8-1.6 13.6-2.3 20.4-.2 1.7-.3 3.4-.5 5.1-.1 1.7-.2 3.5-.2 5.2V114.4c0 1.7-.1 3.4-.1 5.1 0 .8-.1 1.7-.2 2.5 0 .4-.1.8-.1 1.2 0 .4-.1.8-.2 1.1l-.1.2-.3.4-.8.9-1.8 1.8c-2.4 2.4-4.9 4.8-7.3 7.1-2.5 2.3-4.9 4.7-7.4 7-1.2 1.2-2.5 2.3-3.8 3.4-1.3 1.1-4.41 3.72-4.75 3.97-.21.15-.45.26-.7.32-.61.15-1.86.44-2.45.51-1.6.2-3.3.3-5 .4-1.7.1-3.4.1-5 0-1.7-.1-5.7-.5-6.1-.6s-1.32-.32-1.8-.8l-1-.8c-1.3-1.1-2.6-2.2-3.8-3.3-2.5-2.2-5.1-4.5-7.6-6.9-2.5-2.3-5-4.6-7.5-7-1.2-1.2-2.5-2.3-3.7-3.5l-.9-.9-.9-.9c-.2-.2-.85-.55-1.05-1.81-.1-.8-.15-1.59-.25-2.49-.1-.8-.1-1.7-.1-2.5-.1-1.7-.1-3.4-.1-5.1V98.4c0-1.7-.1-3.4-.2-5.1-.5-6.8-1.1-13.6-1.7-20.4l-.1-2.9c-.1-.9-.2-1.7-.2-2.5-.1-1.7-.2-3.4-.2-5.1 0-1.7 0-3.4.1-5 .1-.8.2-1.6.4-2.4.2-.8 2.3-6.8 2.5-7.1.7-1.5 1.5-2.9 2.5-4.3 1-1.3 2.1-2.5 3.3-3.7 1.2-1.1 2.5-2.1 3.9-3s2.9-1.7 4.3-2.4c.4-.2 2.2-.9 2.2-.9s2-.7 2.4-.8c3.2-.9 6.5-1.5 9.9-1.9 3.3-.4 6.7-.6 10.1-.6 1.7 0 3.4.1 5.1.2.8 0 1.7.1 2.5.2s1.7.2 2.5.3c3.3.4 6.7 1 9.9 2.1 1.6.6 3.1 1.2 4.6 2 .4.2.7.4 1.1.6l1.1.7c.7.5 1.4.9 2.1 1.4 2.7 2 5 4.6 6.6 7.6.8 1.5 1.5 3.1 2 4.7.6 1.6.9 3.29 1.3 4.89.2 1.1.31 2.5.31 3.7 0 1.11-.11 5.21-.21 6.31z" fill="#c37d58" stroke-width="none" opacity="1"></path></g></g><g id="svga-group-mouth-single-move" transform="matrix(1,0,0,1,0,0)"><g id="svga-group-mouth-single"><path id="SvgjsPath15111" d="M88.53 129.83s4.06 4.15 10.11 4.69 12.45-4.15 12.45-4.15-12.81 5.96-22.56-.54z" fill="#d29574" stroke-width="none" opacity="1"></path><path id="SvgjsPath15112" d="M83.99 123.04s1.47.84 3.56 1.38c2.32.6 5.38.95 7.57 1.65 2.99.95 3.52 2.68 4.69 2.49 1.17-.18 2.37-2.32 4.63-2.77 2.26-.45 8.66 0 11.37-1.49 0 0-10.89-1.46-16.48-1.65-7.61-.26-15.34.39-15.34.39z" fill="#da7c87" stroke-width="none" opacity="1"></path></g></g><g id="svga-group-eyes-left-move" transform="matrix(1,0,0,1,3,-1)"><g id="svga-group-eyes-left" transform="matrix(1.1000004000000003,0,0,1.1000004000000003,-8.020031774823025,-8.735034787411522)"><g id="svga-group-eyesback-left"><path id="SvgjsPath14949" d="M80.2 74.2c7.5 0 13.5 5.8 13.5 13s-6 13-13.5 13-13.5-5.8-13.5-13 6-13 13.5-13z" fill="#ffffff" stroke-width="none" opacity="1"></path></g><g id="svga-group-eyesiriswrapper-left" transform="matrix(1,0,0,1,0,0)"><g id="svga-group-eyesiriscontrol-left" transform="matrix(1,0,0,1,0,0)"><g id="svga-group-eyesiris-left"><path id="SvgjsPath15030" d="M80.2 81.9c2.9 0 5.3 2.4 5.3 5.3s-2.4 5.3-5.3 5.3-5.3-2.4-5.3-5.3 2.4-5.3 5.3-5.3z" fill="#4e60a3" stroke-width="none" opacity="1"></path><path id="SvgjsPath15031" d="M80.2 82.2c2.8 0 5.1 2.3 5.1 5.1s-2.3 5.1-5.1 5.1-5.1-2.3-5.1-5.1 2.3-5.1 5.1-5.1m0-.6c-3.1 0-5.6 2.5-5.6 5.6s2.5 5.6 5.6 5.6 5.6-2.5 5.6-5.6-2.5-5.6-5.6-5.6z" fill="#253984" stroke-width="none" opacity="1"></path><path id="SvgjsPath15032" d="M77.4 88.7c0 1.3.5 2.5 1.3 3.3.5.1 1 .2 1.5.2 2.8 0 5.1-2.3 5.1-5.1 0-1-.3-2-.8-2.8-.7-.3-1.4-.5-2.2-.5-2.8.1-4.9 2.3-4.9 4.9z" fill="#6777b2" stroke-width="none" opacity="1"></path><path id="SvgjsPath15033" d="M80.2 84.5c1.5 0 2.7 1.2 2.7 2.7s-1.2 2.7-2.7 2.7-2.7-1.2-2.7-2.7 1.2-2.7 2.7-2.7z" fill="#000000" stroke-width="none" opacity="1"></path><path id="SvgjsPath15034" d="M79 84.3c.8 0 1.4.6 1.4 1.4s-.6 1.4-1.4 1.4-1.4-.6-1.4-1.4.7-1.4 1.4-1.4zm2.7 4c.5 0 .9.4.9.9s-.4.9-.9.9-.9-.4-.9-.9.4-.9.9-.9z" fill="#ffffff" stroke-width="none" opacity="1"></path></g></g></g><g id="svga-group-eyesfront-left"><path id="SvgjsPath14957" d="M80.2 73.7c-7.8 0-14.1 6.1-14.1 13.6s6.3 13.6 14.1 13.6 14.1-6.1 14.1-13.6S88 73.7 80.2 73.7zm-1.3 22.6c-7.8 0-10.2-4.1-10.2-4.1 2.7-9.7 7.8-15.2 13.5-12.6 5.7 2.6 7.3 8.8 7.3 9.8-.1 1.1-2.9 6.8-10.6 6.9z" fill="#f1cab5" stroke-width="none" opacity="1"></path><path id="SvgjsPath14958" d="M82.2 96.1c2.4-.6 4.6-2.1 6.1-4 .4-.5.7-1 1-1.6.1-.3.3-.6.3-.9s0-.6-.1-.9c-.2-1.2-.7-2.4-1.3-3.5-1.1-2.2-2.9-4.1-5-5.3-1.1-.6-2.3-1.1-3.6-1.1-1.3-.1-2.6.3-3.6.9-1.1.7-2 1.5-2.8 2.5-.4.5-.8 1-1.1 1.5-.2.3-.3.5-.5.8l-.4.8c-1.1 2.2-1.9 4.5-2.5 6.9.7 1.1 1.7 1.9 2.7 2.5 1.1.6 2.2 1.1 3.4 1.3 1.2.3 2.4.4 3.7.4.6 0 1.2 0 1.9-.1.5 0 1.2 0 1.8-.2zm-2.8-.1h-.9c-1.2 0-2.4-.1-3.6-.4-1.2-.2-2.3-.6-3.4-1.2s-2.1-1.3-2.8-2.3c.7-2.3 1.6-4.6 2.8-6.7l.4-.8c.2-.3.3-.5.5-.8.3-.5.7-1 1.1-1.4.8-.9 1.7-1.7 2.7-2.3 1-.6 2.2-.9 3.3-.9 1.2 0 2.3.4 3.4 1 2.1 1.2 3.8 2.9 5 5.1.6 1.1 1.1 2.2 1.3 3.4.1.3.1.6.1.9-.1.3-.2.6-.3.8-.3.6-.6 1.1-1 1.5-1.5 1.9-3.7 3.2-6 3.7-.6.2-1.2.2-1.8.3-.2.1-.5.1-.8.1z" fill="#000000" stroke-width="none" opacity="1"></path><path id="SvgjsPath14959" d="M73.3 78.5c4-3.4 9.5-2 9.5-2-1.7-1.1-8.5-1.9-11.5 2.9s-3.4 12.3-3.4 12.3 1.4-9.9 5.4-13.2zm16.5 11.9C88.1 99.5 80 101 80 101c10.8-1.9 9.8-10.6 9.8-10.6z" fill="#d29574" stroke-width="none" opacity="1"></path></g></g></g><g id="svga-group-eyes-right-move" transform="matrix(1,0,0,1,-3,-1)"><g id="svga-group-eyes-right" transform="matrix(1.1000004000000003,0,0,1.1000004000000003,-11.980048606648296,-8.730034462234528)"><g id="svga-group-eyesback-right"><path id="SvgjsPath14950" d="M119.8 74.2c7.5 0 13.5 5.8 13.5 13s-6 13-13.5 13-13.5-5.8-13.5-13 6-13 13.5-13z" fill="#ffffff" stroke-width="none" opacity="1"></path></g><g id="svga-group-eyesiriswrapper-right" transform="matrix(1,0,0,1,0,0)"><g id="svga-group-eyesiriscontrol-right" transform="matrix(1,0,0,1,0,0)"><g id="svga-group-eyesiris-right"><path id="SvgjsPath15035" d="M119.8 82.5c2.6 0 4.7 2.1 4.7 4.7s-2.1 4.7-4.7 4.7-4.7-2.1-4.7-4.7 2.1-4.7 4.7-4.7z" fill="#4e60a3" stroke-width="none" opacity="1"></path><path id="SvgjsPath15036" d="M119.8 82.8c2.4 0 4.4 2 4.4 4.4s-2 4.4-4.4 4.4-4.4-2-4.4-4.4 1.9-4.4 4.4-4.4m0-.5c-2.7 0-4.9 2.2-4.9 4.9s2.2 4.9 4.9 4.9 4.9-2.2 4.9-4.9-2.2-4.9-4.9-4.9z" fill="#253984" stroke-width="none" opacity="1"></path><path id="SvgjsPath15037" d="M117.3 88.5c0 1.1.4 2.2 1.2 2.9.4.1.8.2 1.3.2 2.4 0 4.4-2 4.4-4.4 0-.9-.3-1.8-.7-2.4-.6-.3-1.2-.5-1.9-.5-2.4 0-4.3 1.9-4.3 4.2z" fill="#6777b2" stroke-width="none" opacity="1"></path><path id="SvgjsPath15038" d="M119.8 84.8c1.3 0 2.4 1.1 2.4 2.4s-1.1 2.4-2.4 2.4-2.4-1.1-2.4-2.4 1.1-2.4 2.4-2.4z" fill="#000000" stroke-width="none" opacity="1"></path><path id="SvgjsPath15039" d="M118.8 84.7c.7 0 1.2.5 1.2 1.2s-.5 1.2-1.2 1.2-1.2-.5-1.2-1.2.5-1.2 1.2-1.2zm2.3 3.5c.4 0 .8.4.8.8s-.4.8-.8.8-.8-.4-.8-.8.4-.8.8-.8z" fill="#ffffff" stroke-width="none" opacity="1"></path></g></g></g><g id="svga-group-eyesfront-right"><path id="SvgjsPath14960" d="M119.8 73.7c-7.8 0-14.1 6.1-14.1 13.6s6.3 13.6 14.1 13.6 14.1-6.1 14.1-13.6-6.3-13.6-14.1-13.6zm1.4 21.3c-7-.5-9.3-5.5-9.3-6.4s1.7-6 7.1-7.8 11.1 3.8 10.9 11.1c0 0-1.6 3.6-8.7 3.1z" fill="#f1cab5" stroke-width="none" opacity="1"></path><path id="SvgjsPath14963" d="M124.4 81c-1-.5-2.1-.8-3.2-.8s-2.2.3-3.2.7c-2 .9-3.7 2.4-4.8 4.2-.6.9-1 1.9-1.3 2.9-.1.2-.1.6-.1.8.1.3.2.5.3.8.2.5.5.9.8 1.4 1.3 1.7 3.1 3 5.2 3.7 2.1.7 4.3.7 6.4.4 1.1-.2 2.1-.5 3.1-1 .5-.3.9-.6 1.3-.9.4-.4.8-.8 1-1.3.1-2.1-.2-4.3-1.2-6.2-.9-2-2.3-3.7-4.3-4.7zm3.1 12.8c-.9.4-2 .7-3 .8-1 .1-2.1.1-3.1.1-1-.1-2.1-.2-3.1-.5-2-.6-3.9-1.7-5.2-3.3-.3-.4-.6-.9-.8-1.3-.1-.2-.2-.5-.3-.7-.1-.2 0-.5.1-.7.3-1 .8-1.9 1.4-2.8 1.2-1.7 2.8-3.1 4.7-3.9.9-.4 1.9-.7 3-.6 1 0 2 .3 2.9.8 1.8.9 3.3 2.5 4.3 4.4 1 1.8 1.5 3.9 1.5 6.1-.5.5-1.4 1.2-2.4 1.6z" fill="#000000" stroke-width="none" opacity="1"></path><path id="SvgjsPath14964" d="M126.3 80.5c3.4 3 4.3 11.1 4.3 11.1s0-6.1-2.5-10.2-8.4-3.3-9.9-2.5c0 0 4.7-1.4 8.1 1.6zm-14.8 8.8s-.4 5.3 4.1 8.1c0 0-3.2-3-4.1-8.1zm7.9 9c8 1.2 10.4-5.1 10.4-5.1-3.9 5.5-9.5 5.2-10.4 5.1z" fill="#d29574" stroke-width="none" opacity="1"></path></g></g></g><g id="svga-group-facehighlight-single"></g><g id="svga-group-eyebrows-left-move" transform="matrix(1,0,0,1,0,0)"><g id="svga-group-eyebrows-left-rotate" transform="matrix(1,1.7453292519943295e-9,-1.7453292519943295e-9,1,1.2810720306788426e-7,-1.3892820049932197e-7)"><g id="svga-group-eyebrows-left"><path id="SvgjsPath14867" d="M93.2 68.2s-1.8 4.7-3.3 5.6-18.1.7-18.1.7-4.2 2.2-5.5 3.9l3.3-8.3.4.4 10.4-1.7-1.2.8 13-1.7-1.3 2.2 2.3-1.9z" fill="#2a232b" stroke-width="none" opacity="1"></path><path id="SvgjsPath14868" d="m66 79.1.4-.6c.3-.4.7-.8 1.1-1.2.2-.2.4-.3.7-.5.2-.2.5-.3.7-.5.5-.3 1-.6 1.4-.9s1-.6 1.5-.8c2.2.1 4.3.1 6.4.1 2.2 0 4.3 0 6.5-.1 1.1-.1 2.2-.1 3.2-.2.5-.1 1.1-.1 1.6-.3l.2-.1c.1 0 .1-.1.2-.1.1-.1.2-.2.3-.2l.3-.3.2-.3c.3-.4.5-.8.8-1.2l.6-1.2c.2-.4.4-.8.5-1.2.1-.2.2-.4.2-.6l.1-.3.1-.2v-.2l-1.2.9c-.3.2-.5.4-.8.6l1.1-1.8.1-.2h-.3l-3.3.4-3.3.4c-1.1.1-2.2.3-3.3.4l-2.2.3.4-.2.9-.6-1.1.2-2.6.4-2.6.4-5.1.8-.4-.3-.2-.2-.1.3-1.6 4.2-.4 2.2c-.3.7-.5 1.4-.8 2.1l-.2.6zm.6-1.1c.2-.5.4-1.1.7-1.6l.8-2.1 1.6-3.8.2.2.1.1h.1l5.2-.8 2.6-.4 1.5-.2-.4.1-.8.5 1.1-.1 3.3-.4c1.1-.1 2.2-.3 3.2-.5l3.2-.5 3-.4-1.1 2-.3.5.4-.4 1.1-.9c.4-.3.7-.6 1.1-1l-.1.1v.1l-.1.1-.1.3-.3.6-.6 1.2c-.4.8-.9 1.6-1.4 2.3l-.2.3-.2.2c-.1.1-.2.1-.3.2l-.1.1-.2.1c-.5.1-1 .2-1.6.2-1.1.1-2.1.2-3.2.2-2.2.1-4.3.1-6.5.2-2.2 0-4.3.1-6.5.1-1 .6-2 1.1-3 1.8-.5.3-.9.7-1.4 1-.3.1-.6.4-.8.6zm23.1-9c-.6.3-1.1.7-1.6 1-.5.3-1.1.7-1.6 1.1-.5.4-1 .7-1.6 1.1s-1 .8-1.5 1.1l.4.2c.2-.7.3-1.3.4-2l.1-.4-.4.3c-.6.5-1.2 1-1.7 1.5.7-.4 1.3-.8 1.9-1.3l-.3-.1c-.2.7-.4 1.3-.6 1.9l-.2.6.6-.4c.5-.4 1-.7 1.5-1.1l1.5-1.2 1.5-1.2c.6-.3 1.1-.7 1.6-1.1zm-10.9 1.6c-.7.4-1.4.9-2.2 1.4-.7.5-1.4.9-2.1 1.4l.4.2c.1-.3.2-.6.4-1 .1-.3.2-.6.4-1l.2-.5-.5.2c-.5.2-1.1.5-1.6.7s-1 .5-1.5.8c-.5.3-1 .6-1.4.9-.4.3-.9.7-1.2 1.1.4-.3.9-.6 1.4-.9.5-.3 1-.6 1.5-.8.5-.2 1-.5 1.5-.7.5-.2 1-.5 1.6-.7l-.3-.2c-.1.3-.2.6-.4 1-.1.3-.2.6-.3 1l-.2.6.6-.4c.7-.5 1.3-1 2-1.5.4-.5 1.1-1 1.7-1.6z" fill="#1b141c" stroke-width="none" opacity="1"></path></g></g></g><g id="svga-group-eyebrows-right-move" transform="matrix(1,0,0,1,0,0)"><g id="svga-group-eyebrows-right-rotate" transform="matrix(1,1.7453292519943295e-9,-1.7453292519943295e-9,1,1.2967792883955553e-7,-2.1039942055267602e-7)"><g id="svga-group-eyebrows-right"><path id="SvgjsPath14869" d="M108.2 71.1s2.3 4.4 3.6 5.2c1.4.7 15.7-1.3 15.7-1.3s4 1.7 5.3 3.2l-4-7.8-.3.4-9.2-.5 1.2.6-11.5-.2 1.4 2-2.2-1.6z" fill="#2a232b" stroke-width="none" opacity="1"></path><path id="SvgjsPath14870" d="M132.9 78.2c-.3-.7-.7-1.3-1-2l-1-2-2-3.9-.1-.3-.2.2-.3.3-4.5-.3-2.3-.1-2.3-.1-1-.1.9.5.4.2H108.7l.1.2 1.2 1.6c-.2-.2-.5-.3-.8-.5-.4-.2-.8-.5-1.1-.8v.2l.1.2.2.3.3.6c.2.4.4.8.7 1.2.2.4.5.8.7 1.1s.5.7.8 1.1l.2.3.3.2c.1.1.2.1.3.2.1 0 .1.1.2.1h.2c.5.1 1 .1 1.4.1.9 0 1.9-.1 2.8-.2 1.9-.1 3.7-.4 5.6-.6 1.8-.2 3.7-.5 5.5-.8.5.2.9.4 1.4.6.5.2.9.5 1.4.7.2.1.4.3.7.4.2.1.4.3.6.4.4.3.8.6 1.1 1l.4.5-.1-.5zm-1.2-1.1c-.4-.3-.9-.6-1.3-.8-.9-.5-1.8-1-2.8-1.4-1.8.2-3.7.5-5.6.7-1.9.2-3.7.4-5.6.6-.9.1-1.9.2-2.8.2-.5 0-.9 0-1.4-.1H111.9c-.1-.1-.2-.1-.3-.2l-.2-.2-.2-.2c-.6-.7-1.1-1.4-1.6-2.2-.2-.4-.5-.8-.7-1.1l-.3-.6-.2-.3-.1-.2v-.1l-.1-.1c.4.3.7.6 1.1.8l1.1.8.4.3-.3-.4-1.3-1.8 2.6.1 2.9.1c.9 0 1.9.1 2.9.1l2.9.1h.9l-.8-.4-.3-.2 1.3.1 2.3.1 4.6.2h.1l.1-.1.1-.2 1.9 3.6 1 1.9c.3.5.5 1 .8 1.5-.2-.2-.5-.4-.8-.6zm-20.4-5.6c.5.3 1 .6 1.6.8s1 .6 1.5.9l1.5.9 1.5.9-.3.2c-.2-.6-.4-1.3-.7-1.9l-.1-.4.3.3c.6.4 1.1.8 1.7 1.3-.6-.3-1.2-.7-1.8-1.1l.2-.2c.3.6.5 1.2.8 1.9l.2.6-.5-.3-1.5-.9c-.5-.3-1-.6-1.5-1s-1-.7-1.4-1c-.5-.3-1-.7-1.5-1zm9.6.3c.7.3 1.4.7 2.1 1.1s1.3.8 2 1.2l-.3.2c-.2-.3-.3-.6-.5-.9-.2-.3-.3-.6-.5-.9l-.2-.4.5.2c.5.2 1 .3 1.5.5s.9.4 1.4.6c.5.2.9.5 1.4.8.4.3.9.6 1.2.9-.4-.3-.9-.5-1.3-.8-.5-.2-.9-.4-1.4-.6-.5-.2-.9-.4-1.4-.6-.5-.2-1-.3-1.4-.5l.3-.3c.2.3.3.6.4.9.2.3.3.6.4.9l.3.6-.6-.4c-.7-.4-1.3-.8-1.9-1.3-.7-.3-1.4-.7-2-1.2z" fill="#1b141c" stroke-width="none" opacity="1"></path></g></g></g><g id="svga-group-beardwrap"><g id="svga-group-beard-single-move" transform="matrix(1,0,0,1,0,0)"><g id="svga-group-beard-single"><path id="SvgjsPath14858" d="M91.8 134.75c.35 3.01 5.21 7.92 5.21 7.92l.69-1.16 1.39 1.62 2.08-2.43v1.39l1.62-1.62-.23 2.2s3.74-2.85 5.25-7.48c-2.3-.41-5.37-.44-8.37-.52-2.55-.08-5.58-.13-7.64.08z" fill="#2a232b" stroke-width="none" opacity="1"></path><path id="SvgjsPath14859" d="M107.88 134.82c-1.34-.26-2.69-.35-4.04-.4-1.34-.06-2.68-.08-4.02-.08-1.34-.01-2.68-.02-4.02.04-1.35.05-2.66.12-4.04.35.02.87.36 1.6.69 2.35.36.73.78 1.42 1.24 2.09.45.67.95 1.3 1.46 1.93.52.62 1.04 1.23 1.6 1.82l.3.32.22-.38.46-.79c.37.42.74.84 1.13 1.26l.22.24.19-.24 1.73-2.17.02.95.01.32.22-.23c.45-.46.9-.92 1.36-1.37-.07.61-.14 1.23-.22 1.84l-.06.38.31-.24c1.24-.96 2.35-2.07 3.29-3.33.95-1.25 1.69-2.66 2.22-4.16l.14-.4-.41-.1zm-2.42 4.29c-.78 1.14-1.68 2.22-2.7 3.16.05-.6.11-1.19.16-1.79l.03-.35-.24.25c-.45.47-.93.93-1.4 1.39l.02-1.07.01-.41-.28.3-1.95 2.12c-.38-.48-.76-.95-1.16-1.42l-.29-.34-.23.38-.47.77c-1-1.03-1.95-2.12-2.83-3.26-.49-.62-.95-1.27-1.35-1.95-.41-.66-.77-1.41-.94-2.13 1.28-.02 2.66.01 3.98.06l4 .19c2.52.13 5.04.16 7.49.49-.2.56-.41 1.12-.69 1.65-.35.68-.72 1.34-1.16 1.96z" fill="#1b141c" stroke-width="none" opacity="1"></path></g></g></g><g id="svga-group-mustache-single-move" transform="matrix(1,0,0,1,0,2)"><g id="svga-group-mustache-single" transform="matrix(0.7999992000000002,0,0,0.7999992000000002,20.306880543603498,23.543706845349092)"><path id="SvgjsPath15146" d="M99.1 117.8c.5-2.1.9-4.7-4.3-4.5-5.2.2-10.8 1.8-13.5 4.6s-.9 4.4 1.2 4.4 10.7-1.4 13.2-1.6 3.1-1.2 3.4-2.9zm4.1 0c-.6-2-1.2-4.6 4.1-4.8 5.4-.2 11.2 1 14.2 3.7s1.2 4.4-1 4.5c-2.2.1-11.1-.7-13.7-.7-2.5-.1-3.1-1.1-3.6-2.7z" fill="#2a232b" stroke-width="none" opacity="1"></path><path id="SvgjsPath15147" d="M98.3 113.7c-.4-.3-.9-.5-1.4-.6-2-.4-4-.2-6 .2s-3.8 1.1-5.7 1.9c-1.8.8-3.6 1.8-4.8 3.5-.3.4-.6.9-.7 1.4-.1.5 0 1.2.4 1.7.8.9 2 1.1 3.1 1.1 2-.1 3.9-.3 5.9-.6 1.9-.3 3.9-.6 5.8-1 .9-.2 2-.2 2.9-.8.9-.5 1.3-1.6 1.5-2.5.2-.9.5-2 .1-3-.2-.6-.6-1-1.1-1.3zm-17.4 5.2c1-1.6 2.7-2.7 4.5-3.5 1.8-.7 3.7-1.1 5.7-1.3 1.3-.2 2.7-.3 4-.4v.1c-1.6 1.7-3.1 3.5-4.5 5.3-.4.4-.8.9-1.2 1.3l-.1.1v-.3l.1-.9c.1-1.2.2-2.3.4-3.4l.1-.5-.3.4c-1.1 1.6-2.2 3.1-3.3 4.7l-.6-3.6-.1-.6-.4.5c-.8 1.1-1.7 2.2-2.5 3.3l-.7-1.4-.1-.2-.1.2-1.3 2.4c-.3-.7-.1-1.5.4-2.2zm2.2 3c-.9.1-1.8-.1-2.4-.6-.1-.1-.1-.2-.2-.2l1.3-2.1.6 1.5.1.3.2-.3 2.4-3 .6 3.6.1.4c-.9.2-1.8.3-2.7.4zm16-4.1c-.1.5-.2.9-.5 1.4-.2.4-.6.8-1 .9-.9.4-1.8.3-2.8.4-2 .1-3.9.3-5.9.6-.9.1-1.9.3-2.8.4l.2-.3c1.1-1.6 2.1-3.3 3.1-4.9-.1 1-.1 2-.2 2.9l-.1.9v.6c.1.1.1 0 .1 0 .1 0 .1-.1.1-.1l.2-.2 1.2-1.2c1.5-1.6 2.9-3.2 4.3-4.8.2 1.6.3 3.3.6 4.9h.1c-.1-1.8-.1-3.6-.3-5.4v-.2h1.4c.9.1 1.9.4 2.3 1.2.4.9.2 2 0 2.9zm24.2 1c-.2-.6-.5-1-.8-1.4-1.4-1.6-3.3-2.5-5.2-3.2-1.9-.7-3.9-1.2-5.9-1.5-2-.2-4.1-.3-6.1.2-.5.1-1 .3-1.5.6-.4.3-.8.7-1 1.2-.3 1 0 2.1.3 3 .1.5.3 1 .6 1.4.3.4.7.8 1.2 1 1 .5 2 .4 3 .6 2 .3 4 .4 6 .6 2 .1 4 .2 6.1.2 1 0 2.3-.2 3.1-1.2.3-.3.4-1 .2-1.5zm-.9 1.2c-.3.3-.7.5-1.1.6-.4.1-.9.1-1.4.1h-.5l.1-.4.7-2.1 1.6 1.6-1.6-1.8-.1-.2-.1.2-.7 1.8c-.4-1.1-.9-2.2-1.4-3.2l-.3-.6-.2.7-.8 2.8c-1.2-1.6-2.3-3.2-3.5-4.7l-.2-.3-.1.3c-.4 1.6-.8 3.2-1.2 4.7-.8-.8-1.6-1.6-2.3-2.4-.8-.9-1.6-1.7-2.4-2.5l-.2-.2-.1.3c-.2.8-.5 1.5-.7 2.3-.2.6-.3 1.2-.5 1.8l-.5-1.3-.4-.9c-.1-.3-.2-.6-.4-.8.2.2.2.6.3.9l.3.9.6 1.8.2.5.2-.5c.3-.8.5-1.5.7-2.3.2-.6.4-1.3.6-1.9.8.7 1.5 1.5 2.3 2.2.9.8 1.7 1.6 2.5 2.4l.1.1v-.1c.4-1.5.9-3 1.3-4.5 1.1 1.7 2.3 3.3 3.5 5l.3.4.2-.5.8-2.6c.4 1 .9 2 1.4 3l.2.4-5.4-.3c-2-.1-4-.2-6-.2-1 0-2 .1-2.9-.2-.5-.2-.8-.5-1.1-.9s-.4-.9-.6-1.4c-.3-.9-.6-2-.2-2.9.4-.9 1.4-1.2 2.3-1.4 1.9-.2 3.9-.1 5.9 0 2 .1 4 .3 5.9 1 1.9.6 3.7 1.7 4.9 3.2.2.5.5 1.5 0 2.1z" fill="#1b141c" stroke-width="none" opacity="1"></path></g></g><g id="svga-group-nose-single-move" transform="matrix(1,0,0,1,0,0)"><g id="svga-group-nose-single"><path id="SvgjsPath15081" d="M102.57 86.18s5.53 21.64 5.89 25.72-1.08 4.45-2.64 3.73c-1.56-.72-2.16 1.2-3.01 3.85-.84 2.64-2.4 3.25-3.49 2.4s-2.28-7.33-3.61-6.49c-1.32.84-3.25 1.8-4.09 0S98 81.14 98 81.14s2.06-5.58 4.57 5.04z" fill="url(#SvgjsLinearGradient15082)" opacity="1"></path><path id="SvgjsPath15089" d="m102.57 86.18 2.79 10.95c.92 3.65 1.86 7.3 2.69 10.98.2.92.4 1.85.57 2.78.15.95.27 1.9.2 2.89-.03.49-.11 1-.33 1.5-.12.25-.28.5-.52.69-.24.2-.55.31-.84.34-.59.06-1.13-.15-1.55-.33-.37-.14-.61-.1-.86.15s-.46.65-.63 1.06c-.17.41-.32.85-.47 1.29l-.43 1.35c-.15.47-.36.94-.63 1.38-.27.44-.62.87-1.11 1.19-.48.32-1.18.48-1.78.26-.15-.04-.29-.12-.43-.19-.13-.09-.25-.15-.39-.3-.24-.26-.35-.48-.48-.71-.23-.46-.41-.91-.58-1.35-.34-.89-.64-1.78-.98-2.63-.17-.42-.36-.84-.57-1.2-.1-.17-.23-.34-.31-.4-.04-.04-.05-.02 0-.02.02 0 .04-.01.05-.01h-.01l-.08.05c-.41.26-.85.5-1.32.7-.47.19-1 .36-1.6.34-.3-.01-.62-.09-.9-.25-.29-.16-.51-.39-.68-.63-.09-.12-.16-.25-.22-.37a.955.955 0 0 1-.1-.29c-.01-.08-.03-.17-.03-.24-.02-.29 0-.53.01-.78.16-1.94.51-3.78.84-5.64.35-1.86.73-3.7 1.12-5.55 1.55-7.38 3.29-14.71 4.95-22.06.15-.38.35-.74.62-1.04.25-.3.68-.54 1.09-.38.39.15.66.48.88.81.23.34.41.7.57 1.06.67 1.48 1.07 3.04 1.45 4.6zm0 0c-.38-1.56-.8-3.13-1.45-4.6-.17-.37-.35-.72-.58-1.06-.23-.32-.5-.65-.87-.79-.39-.15-.79.08-1.05.38s-.46.66-.6 1.03c-.78 3.68-1.53 7.38-2.24 11.07-.71 3.7-1.41 7.4-2.06 11.11-.33 1.85-.64 3.71-.93 5.56-.28 1.85-.6 3.72-.71 5.55-.01.22-.02.45 0 .63 0 .05.01.07.02.11.01 0-.01-.02.02.04.04.08.09.16.14.23.21.28.45.42.79.44.7.02 1.55-.42 2.3-.9l.07-.05c.04-.02.1-.06.15-.08a.97.97 0 0 1 .39-.08c.28.01.5.13.64.24.28.23.43.47.57.69.27.45.46.9.64 1.35.36.9.65 1.79.97 2.66.16.43.33.86.52 1.25.09.19.21.38.29.46.01.02.11.08.17.13.07.03.14.08.22.1.29.1.61.05.92-.14.31-.19.58-.5.81-.85.47-.7.68-1.6 1.01-2.51.16-.45.32-.9.53-1.36.21-.45.44-.91.87-1.32.21-.2.51-.37.85-.42.33-.04.65.03.9.14.43.21.81.34 1.17.32.7 0 1.03-.94 1.1-1.82.16-1.81-.25-3.67-.58-5.51-1.42-7.35-3.15-14.69-4.99-22z" fill="#c37d58" stroke-width="none" opacity="1"></path></g></g><g id="svga-group-hair-front"><path id="SvgjsPath15159" d="M62.6 77.5s-2.3-1.4-3.2-4.8c0 0-2.2-4.3-2.4-7-.2-2.7.2-6.5.2-6.5s-.6-2.6 0-4.7.8-4.7 2.7-5.8c0 0 1-5.2 3-7.9 0 0 1.9-4.2 6.4-5 0 0-.1-1.8 5.2-4.4 0 0 .9-2.1 5.5-2.1 0 0 2.5-2.3 6.3-2.2 0 0 2.8-1.7 5.6-.5 0 0 .5-1.5 4.9-.8 0 0 2.9-2 7.2.7 0 0 2.1-1.6 4.7-.1 0 0 2.2-.7 5.6.6 0 0 3.4-.3 6.1 2.2 0 0 3.9-.2 5.9 2.6 0 0 2.9.3 5.1 3.8 0 0 3.9.9 6.3 5.2 0 0 1.9 4.1 3 8 0 0 3.5 4 2.5 11 0 0 1.4 4.7-2.2 12.8 0 0-.6 3.3-3.1 4.8 0 0-1.4-5.6.5-11.4 0 0-1.3-4.3-.6-7.8 0 0-.6.6-1.2.1s-2.9-6-2.9-6-2.7-1-3.4-5.1c0 0-3.1-.1-6-3.1 0 0-2.7-.7-4.6-3.3 0 0-2.7.2-4.8-.6 0 0-1.9 1.4-5.2-.2 0 0-1.9 1.3-5.4.6 0 0-4.3 1-6.4-.9 0 0-3.9 1.8-6.1.6 0 0-4 1.2-5.7.3 0 0-3 .4-5.2.7 0 0-1.2 2.2-4.3 2.8 0 0-1.5 2.2-5.6 3.1 0 0-.8 3.9-3.6 5.2 0 0-2.2 5.4-3.2 5.8-1 .4-1.4-.1-1.4-.1s1 3.5-.1 7.2c-.5 0 1.3 7-.1 12.2z" fill="#2a232b" stroke-width="none" opacity="1"></path><path id="SvgjsPath15160" d="M80.2 41c-.3 0-.4.1-.7.4-.3.3-.6.7-.9 1-.6.6-1.4.9-2.1 1.4-2.4-3.7-2.7-7.2-1.5-11.5.1-.3-.3-.5-.5-.2-2 3.9-1.1 9.1 1.7 12.4.2.2.4.1.5-.1.9-.2 1.6-.6 2.3-1.2.5-.4 1.7-1.2 1.4-2 0-.1-.1-.2-.2-.2zm-4.6 3.2c-.8.5-1.4 1.2-2.2 1.6-.9.5-1.8.7-2.8 1-.4-1.7-.9-3.4-1.1-5.2-.2-2 .1-4 .2-6 1.1-1.5 2.3-2.6 4.2-3.2.2-.1.2-.5-.1-.5-2.2.1-4.3 1.6-5.1 3.7v.1h-.1c-2.6.3-4.8 2.5-6.1 4.7-.2.4.4.8.6.4 1.4-2.3 3.4-3.4 5.6-4.6-.7 3.6-.3 7.5 1.1 11 0 .1.1.1.1.1-.4 1.2-.7 2.2-1.5 3.2-.4.5-.8.9-1.3 1.3-.2.1-.3.2-.4.3-1.3-3.7-1.9-7.4-2.8-11.2-.1-.2-.4-.2-.4.1-.3 3.9 1.1 8.1 2.9 11.5l-.1.1c-1.1 1.7-2 3.5-2.9 5.3v.3c-.2-.1-.5-.3-.7-.5 0-.2-.1-.3-.2-.5s-.3-.2-.5-.1c-3.7-3.8-1.5-11.9 1-15.6.3-.4-.4-.8-.7-.4-1.5 2.2-2.5 4.7-2.8 7.3-.1 0-.2 0-.3.1-2.1 3-3.3 6.9-2.6 10.5.1.4.7.3.7-.1 0-3.5.4-6.5 2-9.5 0 .9 0 1.8.1 2.7.2 2.1.8 4.5 2.5 5.8.1 1.1.3 2.3.3 3.4 0 1.2-.2 2.4-.4 3.6h-.1c-.8-.8-1.6-1.5-2.2-2.3-.8-1-1.3-2.2-1.9-3.3-.1-.2-.4-.1-.5.1-.1 0-.2.1-.2.2-1 3.9-.4 9.9 2.3 13 .2.2.5 0 .4-.2-.5-2-1.5-3.8-1.9-5.8-.4-2-.3-3.9-.3-5.9.7 2.1 2.4 4.3 4.1 5.3 1.1 3.5 1.2 7.2.9 10.9-.5-.5-1-1-1.4-1.6-.5-.7-1-1.5-1.3-2.3-.1-.3-.6-.1-.5.2.6 1.8 1.6 3.8 3.2 4.9.4.3.8-.3.5-.6l-.1-.1c.9-4.1.5-8-.5-12 .6-2.1 1-4.6.5-6.8.1.1.3.1.4.2.2 0 .3-.1.3-.2.2.1.4.1.6-.2 1-1.8 2-3.6 2.7-5.5.9-.2 1.8-1.4 2.3-2.1.6-.9 1.2-2 1.4-3.1h.1c1.9-.2 4.2-1.3 5.3-3 .2-.3-.1-.7-.3-.5zm20-4.7c-.4-.5-.7-1.1-.9-1.7-.3-.6-.4-1.2-.7-1.8-.1-.2-.4-.1-.4.1.1 1.3.9 2.6 1.7 3.6.1.2.5 0 .3-.2zm-8.8-4.7c0 1.3.6 2.3 1.4 3.3.2.2.5-.1.4-.3-.5-1-.9-2-1.3-3-.1-.3-.5-.3-.5 0zM82.2 36c-.2-.3-.6 0-.4.3.5 1.1 1.2 2.6 2.4 3.2.2.1.5-.1.4-.4-.3-.5-.8-1-1.2-1.5-.5-.5-.8-1-1.2-1.6zm-7.4 3.3c.2 1.2.7 2.5 1.7 3.4.2.1.4 0 .3-.2-.6-1.1-1.3-2-1.7-3.2-.1-.3-.4-.2-.3 0zm-4.7.1c.1 1.9.3 4.2 1.5 5.7.2.3.6.1.6-.2-.5-1.9-1.3-3.5-1.5-5.5-.1-.3-.6-.4-.6 0zm32.9.9c-.5 0-1.1 0-1.6.1.1-.1.1-.2 0-.3-.2-.2-.3-.5-.4-.7.1.1.3.2.4 0 .3-.6.6-1.2.8-1.9 0-.2-.2-.3-.3-.2-.4.5-.7 1.2-.9 1.8v.2c-.1-.2-.2-.4-.3-.7-.2-.5-.4-1-.7-1.5-.1-.2-.5-.1-.5.1 0 1.2.8 2.3 1.5 3.1-.3 0-.5 0-.8-.1-.9-.2-1.8-.6-2.6-1.1 1.8-4.5 1.5-9.6-.7-13.9-.1-.3-.4-.2-.6-.1-.8 0-1.6.1-2.3.2-.6.1-1.1.1-1.6.3-.2-.1-.4-.1-.5.1-1.8 4.3-2.5 9.1-1.1 13.6-.7.2-1.4.6-2.2.7h-.3c-1.1-2.2-1.7-4.5-2.4-6.8-.1-.2-.4-.2-.4 0-.1 2.5.9 4.8 2.3 6.9-.6 0-1.2 0-1.8-.2-.2-2.1-.7-4.1-.6-6.2.1-2.3.6-4.4 1.1-6.6.1 0 .2-.1.2-.1h.2c1.5-.6 2.8-.8 4.4-.6.3 0 .3-.5.1-.5-1.5-.6-3.4-.4-4.8.5 0 0-.1 0-.1.1-.1 0-.2 0-.3.1-2.2-.3-4.5.7-6 2.2-.1 0-.1.1-.1.2-1.9-.4-4.5.7-5.8 2-.3.3.1.8.4.6.9-.6 1.7-1.1 2.8-1.5.7-.2 1.5-.3 2.2-.4-.4 3.6-.2 7.3.9 10.7l.1.1c-.2.2-.2.6.2.7 1.4.5 3.4.2 4.6-.9l.1.1c0 .1 0 .1.1.2 1.6.7 4 .8 5.4-.5 0 .1.1.2.1.3.1.2.3.1.3-.1l.1.1c1 .3 2.1.4 3.1.3.8-.1 1.8-.2 2.4-.7.1 0 .1 0 .2-.1l.1-.1c.1-.1.1-.1.1-.2v-.1c1.3 1.3 4.1 2.4 5.8 1.2 0-.1-.1-.4-.3-.4zm-22 .1h-.1c-.2-1-.4-2-.5-3.1.2.4.5.8.8 1.2.5.6 1.3 1.4 2.1 1.8-.8.3-1.5.2-2.3.1zm3.1-.2c-.7-.7-1.6-1.2-2.3-2-.7-.7-1.2-1.6-1.6-2.5-.2-2-.2-3.9 0-5.9v-.2c.1 0 .2 0 .4-.1 1.6-1.3 3.2-1.8 5.1-2-1.5 3.7-1.8 8.5-.6 12.3-.3.1-.6.2-1 .4zm10-.1s0-.1-.1-.1c-1.7-2-2.4-4.2-2.7-6.8 0-.2-.4-.3-.4-.1-.5 2.5.5 5.2 2.3 7-.6 0-1.1-.1-1.6-.1-.2 0-.3.1-.3.2-1-4.8-1-9.3 1.2-13.9.6.1 1.2 0 1.7 0 .6-.1 1.3-.1 1.9-.2 1.9 4.5 2 8.9.6 13.6-.6.1-1.3.4-1.9.5-.2-.1-.5-.1-.7-.1zm3.4-14.2c1-.1 1.9-.4 2.9-.3.9.1 1.7.5 2.5.9.4.1.6-.4.4-.6-1.4-1.4-4.4-1.6-6-.3-.2.1 0 .3.2.3zm2.3 8.3c-.1.9.4 1.8 1 2.4.3.3.7-.1.4-.4-.5-.6-.6-1.4-1-2 0-.2-.4-.2-.4 0zM66.3 46.5c-.1-.2-.5-.1-.4.2.4 1.2 1.9 2.6 3.3 2 .1 0 .1-.2 0-.2l-1.5-.6c-.6-.4-1.1-.9-1.4-1.4zm.4-2.8c-.3-.5-.6-.9-.8-1.5-.1-.3-.7-.2-.6.2.3 1 .9 2.6 2 3 .3.1.5-.2.3-.5-.1-.4-.6-.7-.9-1.2zm-4.3 8c-.2-.3-.6 0-.5.3.4.8 1.4 1.8 2.4 1.7.2 0 .3-.3.1-.4-.4-.2-.8-.3-1.1-.5-.4-.3-.7-.7-.9-1.1zM60 59.2c-.1 0-.1.1 0 .1s.1-.1 0-.1zm59.6-18.6c1.2-3.5 1.4-7.2 1-10.8.8.1 1.5.2 2.2.4 1 .3 1.9.9 2.8 1.5.3.2.7-.3.4-.6-1.3-1.3-3.9-2.4-5.8-2 0 0-.1-.1-.1-.2-1.5-1.5-3.8-2.4-6-2.2-.1-.1-.2-.1-.3-.1 0 0-.1 0-.1-.1-1.3-.9-3.2-1.1-4.7-.6h-.1c-2.1-.7-5.2-1.1-6 1.6-.4 1.5 0 3.5.1 4.9.2 2.5.3 4.9.6 7.4 0 .2.4.2.4 0-.1-2.5-.2-4.9-.4-7.4-.1-1-.3-2.2-.2-3.2.3-3.2 2.2-3.3 4.6-2.7 0 .1-.1.2 0 .3.7 4.2 1.1 8.2 1 12.5-.9.2-1.6.8-2.5.9-1 .2-2 .1-2.9-.2-.3-.1-.6.4-.2.6 1.6.8 4.3.9 5.8-.4 1.4 1.2 3.8 1.1 5.4.4.1 0 .1-.1.1-.2 0 0 .1 0 .1-.1 1.2 1.1 3.1 1.4 4.6.9.3 0 .4-.4.2-.6zm-7.2-.3c1.3-2 2.3-4.4 2.3-6.9 0-.2-.3-.3-.4 0-.7 2.3-1.3 4.6-2.4 6.8h-.3c-.7-.1-1.3-.5-2-.7.5-4.2.3-8.7-.7-12.8.1 0 .2-.1.3-.1 1.5-.1 2.8 0 4.2.6h.2c.1.1.1.1.2.1.5 2.2 1 4.3 1.1 6.6.1 2.1-.4 4.1-.6 6.2-.7.2-1.3.3-1.9.2zm2-12.8c1.9.2 3.5.7 5.1 2 .1.1.2.1.4.1 0 0-.1.1 0 .2.2 2 .2 4 0 5.9-.4.9-1 1.8-1.6 2.5-.7.8-1.6 1.3-2.3 2-.3-.1-.7-.3-1-.5 1.2-3.8.9-8.5-.6-12.2zm2.5 12.9c.8-.4 1.5-1.2 2.1-1.8.3-.4.6-.8.8-1.2-.1 1-.3 2-.5 3.1h-.1c-.8 0-1.6.1-2.3-.1zm8.7-8.4c-.1-.3-.6-.1-.5.2 1.2 4.3.8 7.8-1.5 11.5-.7-.5-1.4-.8-2.1-1.4-.3-.3-.6-.5-.8-.8-.3-.3-.3-.5-.8-.5-.1 0-.2.1-.3.2-.2.8.9 1.6 1.4 2 .7.5 1.5 1 2.3 1.2.1.2.4.3.5.1 2.9-3.4 3.8-8.6 1.8-12.5zm16.7 34.7c-.4 2-1.4 3.8-1.9 5.8-.1.2.2.4.4.2 2.7-3.2 3.4-9.1 2.3-13 0-.1-.1-.2-.2-.2 0-.2-.3-.3-.4-.1-.6 1.1-1.1 2.2-1.9 3.3-.7.9-1.5 1.6-2.2 2.3h-.1c-.2-1.2-.4-2.4-.4-3.6 0-1.2.2-2.3.3-3.4 1.7-1.3 2.3-3.7 2.5-5.8.1-.9.1-1.8.1-2.7 1.6 3 2.1 6 2.1 9.5 0 .4.6.5.7.1.7-3.6-.5-7.6-2.6-10.5-.1-.1-.2-.1-.3-.1-.4-2.6-1.3-5.1-2.8-7.3-.3-.4-1 0-.7.4 2.5 3.7 4.7 11.8 1 15.6-.1-.1-.4-.1-.4.1-.1.2-.1.3-.2.5-.2.2-.4.3-.7.5V58c-.9-1.8-1.8-3.7-2.9-5.3 0-.1-.1-.1-.1-.1 1.8-3.4 3.2-7.6 2.9-11.5 0-.2-.4-.3-.4-.1-.9 3.8-1.5 7.5-2.8 11.2-.1 0-.1-.1-.2-.1-.6-.4-1.1-.9-1.5-1.4-.8-1-1.1-2-1.5-3.2l.1-.1c1.3-3.4 1.8-7.3 1.1-11 2.3 1.2 4.3 2.3 5.6 4.6.2.4.9 0 .6-.4-1.3-2.2-3.4-4.4-6.1-4.7h-.1v-.1c-.8-2.1-2.9-3.5-5.1-3.7-.3 0-.3.4-.1.5 1.9.6 3.1 1.6 4.2 3.2.1 2 .4 4 .2 6-.2 1.8-.7 3.4-1.1 5.2-1-.2-1.9-.5-2.8-1-.8-.5-1.5-1.1-2.2-1.6-.2-.2-.6.2-.4.4 1 1.7 3.4 2.8 5.3 3h.1c.1 1.1.7 2.2 1.4 3.1.5.7 1.4 1.9 2.3 2.1.7 1.9 1.7 3.8 2.7 5.5.1.2.4.3.6.2 0 .2.1.3.3.2.1 0 .3-.1.4-.2-.5 2.2-.1 4.6.5 6.8-1 4-1.4 7.9-.5 12l-.1.1c-.3.3.1.9.5.6 1.6-1.1 2.7-3.1 3.2-4.9.1-.3-.4-.5-.5-.2-.4.8-.8 1.6-1.3 2.3-.4.6-.9 1.1-1.4 1.6-.3-3.7-.2-7.4.9-10.9 1.8-1 3.4-3.2 4.1-5.3-.1 1.9-.1 3.8-.5 5.9zm-29.5-31.9c-.4 1-.8 2.1-1.3 3-.1.2.2.5.4.3.8-1 1.3-2 1.4-3.3 0-.3-.4-.3-.5 0zm3.2 4.7c1.2-.6 1.9-2.1 2.4-3.2.1-.3-.3-.6-.4-.3-.3.6-.7 1.1-1.1 1.7-.4.5-.9.9-1.2 1.5-.2.1 0 .4.3.3zm7.7 3.1c1-.8 1.5-2.1 1.7-3.4 0-.2-.2-.3-.3-.1-.4 1.2-1.1 2.2-1.7 3.2-.2.3.1.5.3.3zm4.9 2.5c1.1-1.6 1.4-3.8 1.5-5.7 0-.3-.5-.3-.5 0-.2 2-1 3.6-1.5 5.5-.2.3.3.5.5.2zm5.3 1.4c-.3.5-.8 1-1.3 1.3-.5.3-1 .4-1.5.6-.1 0-.1.2 0 .2 1.4.6 2.9-.8 3.3-2 0-.2-.4-.3-.5-.1zm.3-4.2c-.2.5-.5 1-.8 1.5-.3.4-.8.8-1 1.2-.1.2.1.6.4.5 1.1-.4 1.7-2 2-3 .1-.5-.4-.6-.6-.2zm1.6 11.4c1 .1 1.9-.9 2.4-1.7.2-.3-.3-.5-.4-.3-.2.4-.5.8-.9 1-.4.2-.8.3-1.1.5-.3.2-.2.5 0 .5zm-30.1-14c1.2-1.1 2.3-3 1.8-4.6-.1-.2-.5-.3-.5 0-.1.7-.1 1.4-.3 2.1-.2.8-.7 1.6-1.2 2.2-.3.2 0 .5.2.3zm-.6-7.1c.2.6.3 1.5.8 2 .1.1.3.1.3-.1.1-.7-.4-1.5-.6-2.1-.1-.2-.5-.1-.5.2zM139 57.7c-.2 1.4-.4 2.6-1 3.8-.1.3.3.5.4.2.7-1.2 1.2-2.7.9-4.1 0-.1-.2-.1-.3.1zm1.6 1.9c.1-.7.4-1.5.3-2.2 0-.2-.3-.4-.4-.1-.2.6-.3 1.2-.4 1.9-.1 0-.1.1 0 .1v.2c-.1.3.5.5.5.1z" fill="#1b141c" stroke-width="none" opacity="1"></path></g><g id="svga-group-glasses-single-move" transform="matrix(1,0,0,1,0,0)"><g id="svga-group-glasses-single"><path id="SvgjsPath15121" d="m92.2 97.2-22.21.64c-.67.02-1.24-.5-1.28-1.16l-.45-8.42c-.04-.69.49-1.25 1.18-1.26l23.84-.39c.65-.01 1.17.52 1.17 1.19l.01 7.06c0 1.25-1.01 2.3-2.26 2.34z" fill="#ffffff" stroke-width="none" opacity="0.45"></path><path id="SvgjsPath15122" d="m109.2 96.73 20.34-.58c.58-.02 1.09-.53 1.14-1.15l.57-7.87c.05-.64-.4-1.15-.99-1.14l-21.85.35c-.63.01-1.15.55-1.17 1.21l-.17 6.97c-.04 1.26.92 2.25 2.13 2.21z" fill="#ffffff" stroke-width="none" opacity="0.45"></path><path id="SvgjsPath15123" d="M95.67 92.08c0 1.23-.32 2.24-.71 2.25-.39.01-.71-.98-.71-2.22 0-1.24.32-2.26.71-2.27.4 0 .72 1 .71 2.24z" fill="#939393" stroke-width="none" opacity="1"></path><path id="SvgjsPath15124" d="M105.99 91.85c-.03 1.22.26 2.2.64 2.19.38-.01.71-1 .75-2.22.03-1.22-.26-2.22-.64-2.21-.39 0-.73 1.01-.75 2.24z" fill="#939393" stroke-width="none" opacity="1"></path><path id="SvgjsPath15125" d="m132.87 85.59-2.48.04-22.04.36c-.76.01-1.4.67-1.42 1.47l-.03 1.39c-1.95-.03-4.03-.54-5.99-.51-2.08.04-4.02.64-6.09.74v-1.41c0-.81-.64-1.46-1.43-1.45l-24.07.39-2.87.05.11 1.91 1.35-.02.45 8.25c.04.8.74 1.44 1.56 1.41l22.5-.65c1.33-.04 2.41-1.16 2.41-2.51v-4.69c2.07-.1 4.01-.7 6.08-.75 1.95-.04 4.03.47 5.98.49l-.11 4.63c-.03 1.33.99 2.38 2.27 2.34l20.6-.6c.71-.02 1.33-.65 1.38-1.4l.56-7.69 1.16-.02.12-1.77zM92.4 96.84l-22.53.64a.75.75 0 0 1-.77-.7l-.45-8.63c-.02-.41.3-.76.71-.76l24.03-.41c.39-.01.71.32.71.72l.01 7.37c0 .94-.77 1.74-1.71 1.77zm37.96-1.75c-.03.37-.33.68-.69.69l-20.62.58c-.91.03-1.63-.72-1.61-1.66l.18-7.26c.01-.4.33-.72.7-.73l22.01-.37c.36-.01.63.3.6.69l-.57 8.06z" fill="#26120b" stroke-width="none" opacity="1"></path></g></g></g></g></g><rect id="svga-credit-rect" width="200" height="15" x="0" y="185" fill="#ecf0f1" opacity="0.5" style="display: none;"></rect><text id="svga-credit-text" font-family="Avenir Next, Roboto, Helvetica, Arial, sans-serif" font-size="10px" text-anchor="start" font-weight="400" size="10px" anchor="start" weight="400" fill="#333333" x="33.40447998046875" y="182.60824704170227" style="display: none;"><tspan id="SvgjsTspan14857" dy="13" x="33.40447998046875">Created on AvatarMaker.com</tspan></text></g><defs id="SvgjsDefs14804"><linearGradient id="SvgjsLinearGradient15082" x1="100.0394" y1="79.6722" x2="100.0394" y2="122.2396" gradientUnits="userSpaceOnUse" class="svga-on-canvas-nose-gradient-single-0-null"><stop id="SvgjsStop15083" stop-opacity="0" stop-color="#ffe6d9" offset="0" ></stop><stop id="SvgjsStop15084" stop-opacity="0.9727" stop-color="#f1cab5" offset="0.7584" ></stop><stop id="SvgjsStop15085" stop-opacity="0.9769" stop-color="#e9bca4" offset="0.7953" ></stop><stop id="SvgjsStop15086" stop-opacity="0.9852" stop-color="#e2af93" offset="0.8691" ></stop><stop id="SvgjsStop15087" stop-opacity="0.9968" stop-color="#d29574" offset="0.972" ></stop><stop id="SvgjsStop15088" stop-opacity="1" stop-color="#c37d58" offset="1" ></stop></linearGradient></defs></svg>